<svg xmlns="http://www.w3.org/2000/svg" xmlns:xlink="http://www.w3.org/1999/xlink" width="500" zoomAndPan="magnify" viewBox="0 0 375 374.999991" height="500" preserveAspectRatio="xMidYMid meet" version="1.0"><defs><g/><clipPath id="38506b481d"><path d="M 29.902344 109 L 187 109 L 187 266 L 29.902344 266 Z M 29.902344 109 " clip-rule="nonzero"/></clipPath><clipPath id="04f3f06e77"><path d="M 0.160156 0.199219 L 157 0.199219 L 157 156.921875 L 0.160156 156.921875 Z M 0.160156 0.199219 " clip-rule="nonzero"/></clipPath><clipPath id="c27c0349c1"><rect x="0" width="157" y="0" height="157"/></clipPath><clipPath id="345030c7b7"><path d="M 158 238.429688 L 173.707031 238.429688 L 173.707031 253.429688 L 158 253.429688 Z M 158 238.429688 " clip-rule="nonzero"/></clipPath><clipPath id="965232988c"><path d="M 179.644531 238.429688 L 195.394531 238.429688 L 195.394531 253.429688 L 179.644531 253.429688 Z M 179.644531 238.429688 " clip-rule="nonzero"/></clipPath><clipPath id="6232d2e1a4"><rect x="0" width="120" y="0" height="78"/></clipPath><clipPath id="6f233ee188"><path d="M 0.398438 0.199219 L 10 0.199219 L 10 14 L 0.398438 14 Z M 0.398438 0.199219 " clip-rule="nonzero"/></clipPath><clipPath id="5371b232e1"><path d="M 41 0.199219 L 45 0.199219 L 45 13 L 41 13 Z M 41 0.199219 " clip-rule="nonzero"/></clipPath><clipPath id="38a1549b46"><path d="M 45 0.199219 L 55 0.199219 L 55 14 L 45 14 Z M 45 0.199219 " clip-rule="nonzero"/></clipPath><clipPath id="6e668fc344"><rect x="0" width="84" y="0" height="18"/></clipPath><clipPath id="abc60dae0e"><path d="M 201.328125 238.429688 L 217 238.429688 L 217 253.429688 L 201.328125 253.429688 Z M 201.328125 238.429688 " clip-rule="nonzero"/></clipPath></defs><g clip-path="url(#38506b481d)"><path fill="#ffffff" d="M 181.574219 137.214844 C 181.195312 137.097656 180.820312 136.980469 180.441406 136.863281 C 180.273438 136.8125 179.953125 136.777344 179.816406 136.667969 C 179.453125 136.382812 179.652344 136.761719 179.671875 136.132812 C 179.699219 135.21875 179.894531 134.304688 179.894531 133.375 L 179.894531 126.945312 C 179.894531 124.53125 179.652344 122.242188 177.890625 120.386719 C 175.246094 117.601562 171 117.773438 168.53125 120.652344 C 166.296875 123.253906 164.171875 125.964844 161.996094 128.617188 C 160.78125 130.097656 159.566406 131.574219 158.351562 133.054688 C 157.738281 133.800781 157.65625 133.886719 156.714844 134.097656 C 152.828125 134.984375 148.941406 135.867188 145.054688 136.75 C 145.675781 135.109375 146.292969 133.472656 146.914062 131.835938 C 147.554688 130.140625 148.425781 128.386719 148.796875 126.605469 C 149.117188 125.054688 148.945312 123.324219 148.945312 121.742188 L 148.945312 117.953125 C 148.945312 115.105469 148.648438 112.367188 146.199219 110.492188 C 143.460938 108.402344 139.898438 109.046875 137.707031 111.546875 C 136.628906 112.78125 135.582031 114.042969 134.519531 115.289062 C 129.027344 121.734375 123.53125 128.183594 118.039062 134.628906 C 111.964844 141.757812 105.890625 148.886719 99.816406 156.019531 C 98.027344 158.117188 96.238281 160.21875 94.449219 162.320312 C 93.789062 163.09375 93.621094 163.464844 92.667969 163.671875 C 85.808594 165.183594 78.949219 166.695312 72.09375 168.207031 C 62.855469 170.238281 53.621094 172.273438 44.386719 174.308594 C 41.769531 174.886719 39.148438 175.460938 36.53125 176.039062 C 32.398438 176.949219 29.945312 179.910156 29.996094 184.230469 C 30.023438 186.386719 29.996094 188.546875 29.996094 190.703125 C 29.996094 193.011719 30.105469 195.195312 31.847656 196.972656 C 33.714844 198.878906 37.238281 199.410156 39.691406 200.164062 C 48.148438 202.757812 56.601562 205.355469 65.058594 207.949219 C 65.683594 208.140625 66.308594 208.335938 66.9375 208.527344 C 64.464844 214.140625 61.996094 219.757812 59.527344 225.375 C 56.445312 232.386719 53.359375 239.398438 50.277344 246.410156 C 49.058594 249.1875 49.273438 251.921875 49.273438 254.90625 C 49.273438 256.703125 49.03125 258.816406 49.433594 260.578125 C 50.316406 264.449219 54.460938 266.59375 58.179688 265.335938 C 60.667969 264.496094 62.382812 262.074219 64.09375 260.199219 C 66.898438 257.121094 69.707031 254.039062 72.511719 250.960938 C 75.628906 247.539062 78.75 244.117188 81.867188 240.695312 C 83.046875 239.398438 84.230469 238.101562 85.410156 236.804688 C 86.039062 236.113281 86.707031 235.066406 87.480469 234.53125 C 87.585938 234.460938 87.667969 234.328125 87.753906 234.234375 C 88.5625 237.488281 91.105469 238.726562 94.03125 239.589844 C 93.339844 241.210938 93.488281 242.964844 93.488281 244.679688 C 93.488281 246.519531 93.496094 248.359375 93.488281 250.199219 C 93.484375 252.363281 93.863281 254.367188 95.453125 255.96875 C 97.871094 258.414062 101.867188 258.578125 104.554688 256.480469 C 106.699219 254.804688 108.433594 252.339844 110.242188 250.335938 C 112.5 247.835938 114.671875 245.199219 117.042969 242.804688 C 117.496094 242.347656 117.679688 242.347656 118.355469 242.203125 C 119.914062 241.867188 121.476562 241.535156 123.035156 241.199219 C 126.101562 240.542969 129.1875 239.945312 132.238281 239.226562 C 136 238.34375 137.765625 235.140625 137.730469 231.542969 C 137.71875 230.5 137.726562 229.464844 137.714844 228.421875 C 137.703125 227.273438 137.742188 226.121094 137.730469 224.972656 C 137.714844 223.425781 137.710938 221.871094 136.96875 220.402344 C 135.707031 217.90625 133.441406 217.085938 130.945312 216.34375 C 131.75 214.179688 131.414062 211.507812 131.414062 209.21875 C 131.414062 208.617188 131.113281 207.003906 131.414062 206.503906 C 131.535156 206.292969 131.945312 206.285156 132.230469 206.222656 C 137.714844 205.023438 143.199219 203.820312 148.683594 202.617188 C 154.3125 201.386719 159.941406 200.152344 165.570312 198.917969 C 168.257812 198.328125 170.574219 197.0625 171.5 194.246094 C 171.917969 192.964844 171.851562 191.640625 171.851562 190.3125 L 171.851562 185.230469 C 171.851562 183.625 171.9375 182.023438 171.332031 180.5 C 170.484375 178.378906 168.765625 176.945312 166.621094 176.273438 C 163.792969 175.386719 160.953125 174.539062 158.117188 173.671875 C 160.253906 171.125 162.386719 168.578125 164.519531 166.027344 C 165.105469 165.324219 165.695312 164.625 166.285156 163.921875 C 166.558594 163.59375 166.875 163.035156 167.230469 162.789062 C 167.84375 162.375 169.019531 162.328125 169.742188 162.167969 C 173.480469 161.324219 177.222656 160.492188 180.957031 159.640625 C 183.054688 159.160156 184.800781 158.050781 185.765625 156.058594 C 186.601562 154.335938 186.46875 152.476562 186.46875 150.625 C 186.46875 145.839844 187.453125 139.042969 181.578125 137.214844 Z M 185.84375 152.96875 C 185.835938 155.226562 184.628906 157.433594 182.578125 158.457031 C 181.792969 158.847656 180.917969 158.996094 180.070312 159.1875 C 177.136719 159.851562 174.199219 160.515625 171.265625 161.175781 C 170.089844 161.441406 168.914062 161.707031 167.734375 161.972656 C 167.296875 162.074219 167.097656 162.101562 166.785156 162.347656 C 166.0625 162.914062 165.472656 163.914062 164.886719 164.613281 C 163.867188 165.832031 162.847656 167.050781 161.828125 168.269531 C 160.226562 170.179688 158.628906 172.09375 157.03125 174 C 159.71875 174.824219 162.402344 175.644531 165.089844 176.464844 C 166.300781 176.835938 167.539062 177.132812 168.582031 177.894531 C 170.371094 179.210938 171.199219 181.246094 171.230469 183.417969 C 171.269531 186.238281 171.292969 189.078125 171.230469 191.894531 C 171.15625 195.128906 169.175781 197.464844 166.058594 198.160156 C 154.78125 200.679688 143.484375 203.113281 132.195312 205.589844 C 131.953125 205.644531 130.96875 205.699219 130.792969 205.898438 C 130.484375 206.253906 130.792969 208.257812 130.792969 208.769531 C 130.792969 211.390625 131.132812 214.292969 130.121094 216.75 C 131.484375 217.160156 133.003906 217.457031 134.210938 218.238281 C 136.136719 219.488281 137.074219 221.578125 137.09375 223.820312 C 137.121094 226.4375 137.09375 229.054688 137.09375 231.671875 C 137.09375 235.027344 135.476562 237.816406 132.035156 238.625 C 129.582031 239.203125 127.097656 239.6875 124.632812 240.21875 C 123.027344 240.5625 121.417969 240.90625 119.8125 241.25 C 119.042969 241.417969 117.910156 241.449219 117.199219 241.8125 C 116.890625 241.972656 116.679688 242.273438 116.433594 242.542969 C 115.597656 243.46875 114.765625 244.390625 113.929688 245.316406 C 111.769531 247.707031 109.605469 250.097656 107.445312 252.488281 C 105.902344 254.199219 104.386719 256.359375 102.089844 257.054688 C 99.113281 257.957031 95.832031 256.472656 94.601562 253.605469 C 93.976562 252.148438 94.105469 250.5625 94.105469 249.015625 C 94.105469 245.820312 93.585938 242.183594 94.863281 239.1875 C 93.703125 238.839844 92.429688 238.585938 91.355469 238.007812 C 89.460938 236.980469 88.273438 234.972656 88.179688 232.832031 C 83.878906 237.546875 79.578125 242.265625 75.277344 246.980469 C 70.460938 252.261719 65.734375 257.652344 60.816406 262.835938 C 59.007812 264.742188 56.324219 265.648438 53.78125 264.707031 C 50.753906 263.585938 49.878906 260.851562 49.878906 257.914062 L 49.878906 251.480469 C 49.878906 250.027344 49.90625 248.777344 50.488281 247.394531 C 53.160156 241.0625 56.027344 234.804688 58.796875 228.515625 C 60.644531 224.3125 62.492188 220.109375 64.339844 215.90625 C 65.039062 214.320312 65.738281 212.734375 66.433594 211.148438 C 66.789062 210.34375 67.445312 209.359375 67.605469 208.488281 C 67.628906 208.367188 67.714844 208.234375 67.765625 208.121094 C 60.886719 206.007812 54.007812 203.894531 47.125 201.78125 C 43.457031 200.65625 39.789062 199.53125 36.125 198.402344 C 35.253906 198.136719 34.316406 197.917969 33.519531 197.464844 C 31.203125 196.152344 30.589844 193.777344 30.589844 191.316406 L 30.589844 184.636719 C 30.589844 181.941406 31.128906 179.445312 33.511719 177.816406 C 35.109375 176.71875 37.386719 176.488281 39.246094 176.078125 C 47.453125 174.269531 55.65625 172.460938 63.859375 170.65625 C 72.304688 168.792969 80.753906 166.933594 89.199219 165.070312 C 90.300781 164.828125 91.402344 164.585938 92.5 164.34375 C 92.839844 164.265625 93.421875 164.253906 93.726562 164.074219 C 93.96875 163.925781 94.191406 163.527344 94.371094 163.316406 C 95 162.578125 95.628906 161.839844 96.257812 161.101562 C 101.488281 154.964844 106.71875 148.824219 111.949219 142.683594 C 118.089844 135.476562 124.226562 128.273438 130.367188 121.066406 C 132.371094 118.714844 134.375 116.363281 136.378906 114.011719 C 137.867188 112.261719 139.257812 110.226562 141.726562 109.890625 C 145.660156 109.351562 148.3125 112.894531 148.351562 116.492188 C 148.371094 118.488281 148.351562 120.488281 148.351562 122.484375 C 148.351562 124.242188 148.460938 125.949219 147.855469 127.632812 C 147.164062 129.542969 146.414062 131.429688 145.695312 133.328125 C 145.152344 134.757812 144.609375 136.1875 144.066406 137.621094 C 147.453125 136.851562 150.839844 136.082031 154.226562 135.3125 C 155.09375 135.117188 155.960938 134.917969 156.832031 134.722656 C 157.144531 134.652344 157.695312 134.636719 157.972656 134.464844 C 158.703125 134.003906 159.367188 132.765625 159.90625 132.105469 C 162.578125 128.84375 165.25 125.582031 167.921875 122.320312 C 168.972656 121.035156 169.949219 119.765625 171.617188 119.234375 C 175.292969 118.058594 178.789062 121.042969 179.234375 124.640625 C 179.480469 126.605469 179.289062 128.691406 179.289062 130.664062 C 179.289062 132.753906 179.527344 135.019531 178.746094 137 C 180.300781 137.480469 182.03125 137.820312 183.335938 138.84375 C 185.082031 140.21875 185.832031 142.277344 185.84375 144.441406 C 185.863281 147.28125 185.84375 150.125 185.84375 152.96875 Z M 185.84375 152.96875 " fill-opacity="1" fill-rule="nonzero"/></g><path fill="#ffffff" d="M 108.242188 210.839844 C 106.988281 212.210938 105.734375 213.585938 104.476562 214.957031 C 105.6875 214.695312 107.527344 214.679688 108.46875 213.894531 C 109.738281 212.832031 110.777344 211.285156 111.878906 210.042969 C 110.667969 210.308594 109.453125 210.574219 108.242188 210.839844 Z M 107.925781 213.566406 C 107.375 213.6875 106.824219 213.8125 106.273438 213.933594 C 106.90625 213.234375 107.527344 212.519531 108.179688 211.839844 C 108.746094 211.246094 109.335938 211.242188 110.148438 211.066406 C 109.410156 211.898438 108.667969 212.734375 107.925781 213.566406 Z M 107.925781 213.566406 " fill-opacity="1" fill-rule="nonzero"/><path fill="#ffffff" d="M 139.027344 150.910156 C 137.039062 156.160156 135.054688 161.410156 133.066406 166.664062 C 137.117188 167.902344 141.167969 169.140625 145.21875 170.378906 L 145.21875 165.242188 C 145.21875 163.28125 145.09375 161.429688 145.835938 159.5625 C 143.976562 158.988281 142.046875 158.589844 140.683594 157.074219 C 139.082031 155.292969 139.027344 153.160156 139.027344 150.910156 Z M 143.183594 159.398438 C 143.808594 159.589844 144.429688 159.777344 145.054688 159.96875 C 144.457031 161.621094 144.625 163.457031 144.625 165.1875 L 144.625 169.542969 C 141.046875 168.441406 137.464844 167.34375 133.886719 166.246094 C 135.445312 162.125 137.003906 158.007812 138.5625 153.890625 C 138.980469 156.394531 140.726562 158.632812 143.183594 159.398438 Z M 143.183594 159.398438 " fill-opacity="1" fill-rule="nonzero"/><path fill="#ffffff" d="M 180.691406 143.179688 C 180.375 142.679688 179.722656 142.578125 179.199219 142.414062 C 178.308594 142.136719 177.414062 141.859375 176.523438 141.582031 C 175.117188 141.148438 173.710938 140.710938 172.304688 140.273438 C 172.824219 138.808594 173.34375 137.339844 173.863281 135.875 C 174.355469 134.492188 174.375 133.40625 174.375 131.917969 L 174.375 127.878906 C 174.375 126.902344 174.703125 122.882812 172.566406 124.210938 C 171.910156 124.621094 171.382812 125.585938 170.910156 126.167969 C 169.761719 127.574219 168.613281 128.980469 167.464844 130.386719 C 165.277344 133.070312 163.089844 135.75 160.902344 138.429688 C 160.484375 138.945312 160.445312 139.03125 159.828125 139.1875 C 158.386719 139.550781 156.929688 139.847656 155.480469 140.175781 C 152.074219 140.949219 148.671875 141.722656 145.265625 142.496094 C 144.207031 142.734375 143.695312 143.1875 143.664062 144.339844 C 143.652344 144.84375 143.664062 145.351562 143.664062 145.855469 L 143.664062 149.015625 C 143.664062 150.167969 143.601562 151.347656 143.679688 152.5 C 143.792969 154.242188 146 154.394531 147.394531 154.828125 C 148.972656 155.320312 150.550781 155.8125 152.128906 156.300781 C 151.648438 157.59375 151.167969 158.878906 150.6875 160.171875 C 150.355469 161.0625 149.96875 161.875 149.933594 162.828125 C 149.828125 165.550781 149.675781 168.5 149.933594 171.210938 C 150.039062 172.351562 151.070312 173.027344 152.03125 172.167969 C 152.171875 172.039062 152.28125 171.863281 152.40625 171.71875 C 153.210938 170.789062 153.984375 169.824219 154.769531 168.878906 C 157.007812 166.199219 159.242188 163.515625 161.476562 160.832031 C 162.339844 159.796875 163.363281 157.839844 164.6875 157.4375 C 167.605469 156.542969 170.722656 156.070312 173.699219 155.398438 C 175.226562 155.050781 176.753906 154.707031 178.285156 154.359375 C 179.011719 154.195312 180.34375 154.128906 180.765625 153.40625 C 181.214844 152.632812 180.933594 151 180.933594 150.125 L 180.933594 146.96875 C 180.933594 145.996094 181.269531 144 180.691406 143.179688 Z M 151.105469 162.480469 C 152.945312 157.503906 154.785156 152.527344 156.625 147.550781 C 152.691406 146.328125 148.761719 145.109375 144.828125 143.886719 C 149.882812 142.738281 154.941406 141.585938 159.996094 140.4375 C 160.367188 140.351562 160.78125 140.324219 161.078125 140.109375 C 161.652344 139.691406 162.132812 138.8125 162.578125 138.265625 C 164.625 135.753906 166.671875 133.242188 168.71875 130.730469 C 170.195312 128.917969 171.671875 127.101562 173.148438 125.289062 C 171.390625 130.265625 169.628906 135.238281 167.867188 140.210938 C 171.808594 141.433594 175.75 142.660156 179.691406 143.886719 C 174.636719 145.03125 169.582031 146.175781 164.523438 147.324219 C 164.101562 147.417969 163.726562 147.449219 163.402344 147.691406 C 162.671875 148.242188 162.066406 149.304688 161.484375 150 C 159.363281 152.554688 157.246094 155.105469 155.121094 157.660156 C 153.785156 159.269531 152.445312 160.875 151.105469 162.480469 Z M 151.105469 162.480469 " fill-opacity="1" fill-rule="nonzero"/><path fill="#ffffff" d="M 143.449219 125.46875 C 143.652344 124.941406 143.527344 124.144531 143.527344 123.601562 L 143.527344 120.101562 C 143.527344 119.046875 144.148438 114.898438 142.363281 114.894531 C 141.214844 114.890625 139.785156 117.320312 139.167969 118.042969 C 134.058594 124.054688 128.953125 130.066406 123.84375 136.074219 C 117.609375 143.410156 111.375 150.746094 105.140625 158.082031 C 102.949219 160.660156 100.757812 163.238281 98.566406 165.816406 C 97.957031 166.53125 97.347656 167.25 96.738281 167.96875 C 96.566406 168.167969 96.355469 168.546875 96.125 168.683594 C 95.8125 168.875 95.207031 168.886719 94.855469 168.964844 C 93.761719 169.203125 92.664062 169.445312 91.566406 169.6875 C 87.890625 170.492188 84.210938 171.300781 80.535156 172.109375 C 71.023438 174.195312 61.515625 176.285156 52.003906 178.375 C 48.328125 179.179688 44.652344 179.988281 40.976562 180.796875 C 39.507812 181.117188 37.828125 181.273438 36.417969 181.796875 C 34.917969 182.351562 35.390625 185.019531 35.394531 186.320312 C 35.402344 187.582031 35.390625 188.847656 35.394531 190.109375 C 35.398438 190.796875 35.191406 192.015625 35.582031 192.609375 C 35.972656 193.199219 36.976562 193.335938 37.609375 193.527344 C 41.054688 194.589844 44.5 195.652344 47.945312 196.710938 C 56.203125 199.253906 64.457031 201.796875 72.710938 204.335938 C 73.253906 204.503906 73.796875 204.671875 74.335938 204.839844 C 71.9375 210.792969 69.222656 216.628906 66.644531 222.503906 C 63.003906 230.796875 59.363281 239.089844 55.726562 247.382812 C 55.4375 248.042969 55.066406 248.710938 54.839844 249.394531 C 54.40625 250.714844 54.707031 252.453125 54.707031 253.820312 L 54.707031 257.410156 C 54.707031 258.128906 54.535156 259.199219 55.121094 259.71875 C 56.027344 260.523438 56.796875 259.679688 57.378906 259.039062 C 61.894531 254.101562 66.410156 249.164062 70.925781 244.222656 C 77.871094 236.628906 84.816406 229.03125 91.761719 221.4375 C 96.238281 216.542969 100.714844 211.644531 105.191406 206.75 C 105.851562 206.027344 106.5 206.046875 107.484375 205.828125 C 110.625 205.140625 113.765625 204.449219 116.910156 203.761719 C 126.769531 201.59375 136.632812 199.429688 146.496094 197.265625 C 150.714844 196.339844 154.929688 195.414062 159.148438 194.484375 C 161.148438 194.046875 163.3125 193.785156 165.261719 193.144531 C 166.757812 192.648438 166.335938 190.207031 166.328125 188.894531 C 166.320312 187.566406 166.316406 186.234375 166.316406 184.90625 C 166.316406 184.492188 166.128906 183.042969 166.59375 183.035156 C 166.109375 182.90625 166.007812 182.082031 165.382812 181.808594 C 165.203125 181.730469 165 181.691406 164.816406 181.632812 C 163.984375 181.378906 163.152344 181.125 162.320312 180.871094 C 159.3125 179.953125 156.300781 179.03125 153.292969 178.113281 C 146.078125 175.90625 138.863281 173.703125 131.648438 171.496094 C 129.945312 170.976562 128.238281 170.457031 126.535156 169.933594 C 128.441406 164.921875 130.351562 159.90625 132.257812 154.890625 C 135.285156 146.933594 138.3125 138.972656 141.339844 131.015625 C 142.042969 129.167969 142.746094 127.316406 143.449219 125.46875 Z M 165.101562 183.035156 C 155.667969 185.109375 146.234375 187.179688 136.804688 189.253906 C 128.96875 190.976562 121.128906 192.664062 113.28125 194.328125 C 110.691406 194.875 108.101562 195.421875 105.507812 195.972656 C 104.804688 196.121094 104.4375 196.117188 103.957031 196.574219 C 101.773438 198.648438 99.859375 201.125 97.847656 203.359375 C 89.722656 212.375 81.601562 221.390625 73.480469 230.402344 C 69.722656 234.578125 65.964844 238.75 62.203125 242.921875 C 60.222656 245.121094 58.34375 247.582031 56.179688 249.605469 C 56.082031 249.699219 55.996094 249.8125 55.90625 249.914062 C 58.566406 243.851562 61.222656 237.789062 63.882812 231.726562 C 68.101562 222.109375 72.320312 212.496094 76.539062 202.878906 C 77.511719 200.664062 78.480469 198.449219 79.453125 196.238281 C 74.636719 194.753906 69.824219 193.273438 65.007812 191.789062 C 57.320312 189.421875 49.632812 187.054688 41.945312 184.683594 C 40.160156 184.136719 38.375 183.585938 36.589844 183.035156 C 44.210938 181.363281 51.828125 179.691406 59.449219 178.019531 C 70.457031 175.601562 81.464844 173.183594 92.46875 170.769531 C 93.695312 170.5 94.929688 170.246094 96.152344 169.960938 C 96.699219 169.832031 96.722656 169.816406 97.101562 169.390625 C 100.011719 166.082031 102.808594 162.667969 105.664062 159.308594 C 111.375 152.585938 117.085938 145.859375 122.796875 139.136719 C 129.105469 131.714844 135.414062 124.292969 141.722656 116.871094 C 141.921875 116.632812 142.125 116.394531 142.324219 116.160156 C 139.734375 122.957031 137.148438 129.757812 134.558594 136.558594 C 131.8125 143.769531 129.15625 151.023438 126.320312 158.199219 C 124.78125 162.097656 123.144531 165.957031 121.558594 169.835938 C 126.089844 171.167969 130.617188 172.507812 135.136719 173.886719 C 143 176.285156 150.867188 178.691406 158.734375 181.089844 C 160.855469 181.738281 162.976562 182.386719 165.101562 183.035156 Z M 165.101562 183.035156 " fill-opacity="1" fill-rule="nonzero"/><path fill="#ffffff" d="M 125.75 214.300781 C 126.160156 213.246094 125.828125 211.511719 125.828125 210.421875 C 125.828125 208.78125 125.84375 207.140625 125.828125 205.496094 C 125.8125 204.09375 124.796875 203.121094 123.554688 204.285156 C 122.78125 205.011719 122.113281 205.910156 121.410156 206.707031 C 118.960938 209.464844 116.515625 212.226562 114.066406 214.988281 C 113.152344 216.015625 112.238281 217.046875 111.324219 218.078125 C 111 218.445312 110.855469 218.640625 110.4375 218.8125 C 109.390625 219.242188 108.039062 219.328125 106.941406 219.5625 C 105.09375 219.960938 103.25 220.355469 101.40625 220.753906 C 99.027344 221.265625 96.339844 221.511719 94.042969 222.335938 C 92.648438 222.835938 93.03125 224.9375 93.046875 226.140625 C 93.054688 227.117188 93.023438 228.101562 93.03125 229.082031 C 93.042969 230.15625 92.917969 231.300781 93.03125 232.367188 C 93.203125 233.976562 95.757812 234.183594 97.019531 234.558594 C 98.53125 235.011719 100.046875 235.464844 101.558594 235.917969 C 100.941406 237.386719 100.324219 238.855469 99.707031 240.328125 C 99.1875 241.5625 99.046875 242.449219 99.046875 243.785156 C 99.046875 245.996094 99.035156 248.207031 99.046875 250.417969 C 99.050781 251.667969 99.886719 252.980469 101.207031 251.859375 C 101.371094 251.71875 101.507812 251.527344 101.652344 251.367188 C 102.628906 250.285156 103.609375 249.207031 104.585938 248.125 C 107.300781 245.125 110.015625 242.125 112.730469 239.125 C 113.210938 238.59375 113.808594 237.609375 114.433594 237.242188 C 115.109375 236.847656 116.386719 236.824219 117.136719 236.664062 C 121.050781 235.820312 124.96875 234.980469 128.882812 234.140625 C 129.6875 233.964844 131.242188 233.914062 131.816406 233.226562 C 132.273438 232.679688 132.121094 231.628906 132.121094 230.953125 C 132.113281 229.855469 132.125 228.761719 132.121094 227.667969 C 132.113281 226.558594 132.113281 225.453125 132.113281 224.34375 C 132.113281 223.964844 132.175781 223.496094 132.03125 223.132812 C 131.761719 222.4375 131.085938 222.320312 130.457031 222.132812 C 128.570312 221.570312 126.679688 221.003906 124.792969 220.441406 C 124.34375 220.304688 123.894531 220.171875 123.441406 220.039062 C 124.210938 218.125 124.984375 216.214844 125.753906 214.300781 Z M 130.867188 223.574219 C 125.6875 224.703125 120.5 225.785156 115.316406 226.882812 C 114.8125 226.988281 114 227.007812 113.558594 227.277344 C 113.015625 227.609375 112.515625 228.4375 112.09375 228.90625 C 109.863281 231.382812 107.632812 233.855469 105.398438 236.332031 C 103.730469 238.179688 102.066406 240.027344 100.398438 241.878906 C 102.445312 237.003906 104.492188 232.125 106.535156 227.25 C 102.445312 226.023438 98.351562 224.800781 94.257812 223.574219 C 99.503906 222.445312 104.746094 221.316406 109.992188 220.191406 C 110.417969 220.097656 111.027344 220.070312 111.394531 219.847656 C 111.945312 219.511719 112.460938 218.648438 112.878906 218.171875 C 115.066406 215.710938 117.253906 213.25 119.441406 210.785156 C 121.089844 208.929688 122.738281 207.074219 124.386719 205.21875 C 122.386719 210.113281 120.386719 215.003906 118.386719 219.898438 C 122.546875 221.121094 126.710938 222.339844 130.867188 223.574219 Z M 130.867188 223.574219 " fill-opacity="1" fill-rule="nonzero"/><g transform="matrix(1, 0, 0, 1, 188, 109)"><g clip-path="url(#c27c0349c1)"><g clip-path="url(#04f3f06e77)"><path fill="#ffffff" d="M 5.417969 28.214844 C 5.796875 28.097656 6.175781 27.980469 6.554688 27.863281 C 6.722656 27.8125 7.042969 27.777344 7.179688 27.667969 C 7.542969 27.382812 7.339844 27.761719 7.324219 27.132812 C 7.296875 26.21875 7.101562 25.304688 7.101562 24.375 L 7.101562 17.945312 C 7.101562 15.53125 7.339844 13.242188 9.105469 11.386719 C 11.75 8.601562 15.996094 8.773438 18.464844 11.652344 C 20.699219 14.253906 22.824219 16.964844 25 19.617188 C 26.214844 21.097656 27.429688 22.574219 28.644531 24.054688 C 29.257812 24.800781 29.339844 24.886719 30.277344 25.097656 C 34.164062 25.984375 38.054688 26.867188 41.941406 27.75 C 41.320312 26.109375 40.703125 24.472656 40.082031 22.835938 C 39.441406 21.140625 38.570312 19.386719 38.199219 17.605469 C 37.878906 16.054688 38.050781 14.324219 38.050781 12.742188 L 38.050781 8.953125 C 38.050781 6.105469 38.34375 3.367188 40.796875 1.492188 C 43.53125 -0.597656 47.097656 0.046875 49.289062 2.546875 C 50.367188 3.78125 51.414062 5.042969 52.476562 6.289062 C 57.96875 12.734375 63.460938 19.183594 68.953125 25.628906 C 75.03125 32.757812 81.105469 39.886719 87.179688 47.019531 C 88.96875 49.117188 90.757812 51.21875 92.546875 53.320312 C 93.207031 54.09375 93.375 54.464844 94.328125 54.671875 C 101.183594 56.183594 108.042969 57.695312 114.902344 59.207031 C 124.136719 61.238281 133.371094 63.273438 142.605469 65.308594 C 145.226562 65.886719 147.847656 66.460938 150.464844 67.039062 C 154.597656 67.949219 157.050781 70.910156 156.996094 75.230469 C 156.972656 77.386719 156.996094 79.546875 156.996094 81.703125 C 156.996094 84.011719 156.890625 86.195312 155.148438 87.972656 C 153.28125 89.878906 149.753906 90.410156 147.300781 91.164062 C 138.847656 93.757812 130.394531 96.355469 121.9375 98.949219 C 121.3125 99.140625 120.683594 99.335938 120.058594 99.527344 C 122.527344 105.140625 124.996094 110.757812 127.46875 116.375 C 130.550781 123.386719 133.632812 130.398438 136.71875 137.410156 C 137.9375 140.1875 137.71875 142.921875 137.71875 145.90625 C 137.71875 147.703125 137.964844 149.816406 137.5625 151.578125 C 136.675781 155.449219 132.535156 157.59375 128.816406 156.335938 C 126.324219 155.496094 124.609375 153.074219 122.902344 151.199219 C 120.09375 148.121094 117.289062 145.039062 114.480469 141.960938 C 111.363281 138.539062 108.246094 135.117188 105.128906 131.695312 C 103.949219 130.398438 102.765625 129.101562 101.585938 127.804688 C 100.953125 127.113281 100.285156 126.066406 99.511719 125.53125 C 99.410156 125.460938 99.328125 125.328125 99.242188 125.234375 C 98.429688 128.488281 95.890625 129.726562 92.960938 130.589844 C 93.65625 132.210938 93.507812 133.964844 93.507812 135.679688 C 93.507812 137.519531 93.5 139.359375 93.507812 141.199219 C 93.511719 143.363281 93.128906 145.367188 91.542969 146.96875 C 89.121094 149.414062 85.128906 149.578125 82.441406 147.480469 C 80.296875 145.804688 78.5625 143.339844 76.75 141.335938 C 74.492188 138.835938 72.320312 136.199219 69.953125 133.804688 C 69.5 133.347656 69.316406 133.347656 68.640625 133.203125 C 67.082031 132.867188 65.519531 132.535156 63.960938 132.199219 C 60.894531 131.542969 57.808594 130.945312 54.757812 130.226562 C 50.996094 129.34375 49.230469 126.140625 49.265625 122.542969 C 49.277344 121.5 49.269531 120.464844 49.277344 119.421875 C 49.289062 118.273438 49.253906 117.121094 49.265625 115.972656 C 49.28125 114.425781 49.28125 112.871094 50.027344 111.402344 C 51.289062 108.90625 53.554688 108.085938 56.050781 107.34375 C 55.246094 105.179688 55.582031 102.507812 55.582031 100.21875 C 55.582031 99.617188 55.878906 98.003906 55.582031 97.503906 C 55.457031 97.292969 55.050781 97.285156 54.765625 97.222656 C 49.28125 96.023438 43.792969 94.820312 38.308594 93.617188 C 32.679688 92.386719 27.054688 91.152344 21.425781 89.917969 C 18.738281 89.328125 16.417969 88.0625 15.496094 85.246094 C 15.074219 83.964844 15.144531 82.640625 15.144531 81.3125 L 15.144531 76.230469 C 15.144531 74.625 15.058594 73.023438 15.664062 71.5 C 16.511719 69.378906 18.230469 67.945312 20.375 67.273438 C 23.203125 66.386719 26.042969 65.539062 28.875 64.671875 C 26.742188 62.125 24.609375 59.578125 22.476562 57.027344 C 21.886719 56.324219 21.300781 55.625 20.710938 54.921875 C 20.4375 54.59375 20.121094 54.035156 19.765625 53.789062 C 19.152344 53.375 17.972656 53.328125 17.253906 53.167969 C 13.515625 52.324219 9.773438 51.492188 6.039062 50.640625 C 3.941406 50.160156 2.195312 49.050781 1.226562 47.058594 C 0.394531 45.335938 0.527344 43.476562 0.527344 41.625 C 0.527344 36.839844 -0.460938 30.042969 5.417969 28.214844 Z M 1.148438 43.96875 C 1.160156 46.226562 2.367188 48.433594 4.417969 49.457031 C 5.203125 49.847656 6.074219 49.996094 6.925781 50.1875 C 9.859375 50.851562 12.792969 51.515625 15.726562 52.175781 C 16.90625 52.441406 18.082031 52.707031 19.257812 52.972656 C 19.699219 53.074219 19.898438 53.101562 20.210938 53.347656 C 20.933594 53.914062 21.523438 54.914062 22.109375 55.613281 C 23.128906 56.832031 24.148438 58.050781 25.167969 59.269531 C 26.765625 61.179688 28.367188 63.09375 29.964844 65 C 27.277344 65.824219 24.589844 66.644531 21.90625 67.464844 C 20.691406 67.835938 19.457031 68.132812 18.414062 68.894531 C 16.625 70.210938 15.796875 72.246094 15.765625 74.417969 C 15.726562 77.238281 15.703125 80.078125 15.765625 82.894531 C 15.839844 86.128906 17.816406 88.464844 20.9375 89.160156 C 32.214844 91.679688 43.511719 94.113281 54.800781 96.589844 C 55.042969 96.644531 56.023438 96.699219 56.203125 96.898438 C 56.511719 97.253906 56.203125 99.257812 56.203125 99.769531 C 56.203125 102.390625 55.859375 105.292969 56.875 107.75 C 55.511719 108.160156 53.992188 108.457031 52.785156 109.238281 C 50.859375 110.488281 49.921875 112.578125 49.902344 114.820312 C 49.875 117.4375 49.902344 120.054688 49.902344 122.671875 C 49.902344 126.027344 51.515625 128.816406 54.960938 129.625 C 57.414062 130.203125 59.898438 130.6875 62.363281 131.21875 C 63.96875 131.5625 65.574219 131.90625 67.179688 132.25 C 67.953125 132.417969 69.085938 132.449219 69.796875 132.8125 C 70.105469 132.972656 70.316406 133.273438 70.5625 133.542969 C 71.394531 134.46875 72.230469 135.390625 73.066406 136.316406 C 75.226562 138.707031 77.386719 141.097656 79.546875 143.488281 C 81.09375 145.199219 82.605469 147.359375 84.90625 148.054688 C 87.882812 148.957031 91.164062 147.472656 92.394531 144.605469 C 93.019531 143.148438 92.890625 141.5625 92.890625 140.015625 C 92.890625 136.820312 93.40625 133.183594 92.132812 130.1875 C 93.292969 129.839844 94.566406 129.585938 95.640625 129.007812 C 97.535156 127.980469 98.722656 125.972656 98.816406 123.832031 C 103.117188 128.546875 107.417969 133.265625 111.71875 137.980469 C 116.535156 143.261719 121.257812 148.652344 126.179688 153.835938 C 127.988281 155.742188 130.671875 156.648438 133.214844 155.707031 C 136.242188 154.585938 137.117188 151.851562 137.117188 148.914062 L 137.117188 142.480469 C 137.117188 141.027344 137.085938 139.777344 136.503906 138.394531 C 133.835938 132.0625 130.96875 125.804688 128.199219 119.515625 C 126.351562 115.3125 124.503906 111.109375 122.652344 106.90625 C 121.957031 105.320312 121.257812 103.734375 120.558594 102.148438 C 120.207031 101.34375 119.550781 100.359375 119.390625 99.488281 C 119.367188 99.367188 119.277344 99.234375 119.230469 99.121094 C 126.109375 97.007812 132.988281 94.894531 139.867188 92.78125 C 143.535156 91.65625 147.203125 90.53125 150.871094 89.402344 C 151.742188 89.136719 152.679688 88.917969 153.476562 88.464844 C 155.792969 87.152344 156.40625 84.777344 156.40625 82.316406 L 156.40625 75.636719 C 156.40625 72.941406 155.867188 70.445312 153.484375 68.816406 C 151.886719 67.71875 149.609375 67.488281 147.746094 67.078125 C 139.542969 65.269531 131.339844 63.460938 123.136719 61.65625 C 114.6875 59.792969 106.242188 57.933594 97.796875 56.070312 C 96.695312 55.828125 95.59375 55.585938 94.492188 55.34375 C 94.15625 55.265625 93.570312 55.253906 93.269531 55.074219 C 93.027344 54.925781 92.804688 54.527344 92.625 54.316406 C 91.996094 53.578125 91.367188 52.839844 90.738281 52.101562 C 85.507812 45.964844 80.277344 39.824219 75.046875 33.683594 C 68.90625 26.476562 62.769531 19.273438 56.628906 12.066406 C 54.625 9.714844 52.621094 7.363281 50.617188 5.011719 C 49.128906 3.261719 47.738281 1.226562 45.269531 0.890625 C 41.332031 0.351562 38.683594 3.894531 38.644531 7.492188 C 38.625 9.488281 38.644531 11.488281 38.644531 13.484375 C 38.644531 15.242188 38.535156 16.949219 39.140625 18.632812 C 39.828125 20.542969 40.582031 22.429688 41.300781 24.328125 C 41.84375 25.757812 42.382812 27.1875 42.925781 28.621094 C 39.542969 27.851562 36.15625 27.082031 32.769531 26.3125 C 31.902344 26.117188 31.03125 25.917969 30.164062 25.722656 C 29.851562 25.652344 29.300781 25.636719 29.023438 25.464844 C 28.289062 25.003906 27.628906 23.765625 27.085938 23.105469 C 24.414062 19.84375 21.742188 16.582031 19.070312 13.320312 C 18.023438 12.035156 17.046875 10.765625 15.378906 10.234375 C 11.703125 9.058594 8.207031 12.042969 7.761719 15.640625 C 7.515625 17.605469 7.707031 19.691406 7.707031 21.664062 C 7.707031 23.753906 7.46875 26.019531 8.25 28 C 6.695312 28.480469 4.964844 28.820312 3.660156 29.84375 C 1.914062 31.21875 1.164062 33.277344 1.148438 35.441406 C 1.132812 38.28125 1.148438 41.125 1.148438 43.96875 Z M 1.148438 43.96875 " fill-opacity="1" fill-rule="nonzero"/></g><path fill="#ffffff" d="M 78.753906 101.839844 C 80.007812 103.210938 81.261719 104.585938 82.515625 105.957031 C 81.308594 105.695312 79.464844 105.679688 78.527344 104.894531 C 77.257812 103.832031 76.214844 102.285156 75.113281 101.042969 C 76.328125 101.308594 77.539062 101.574219 78.753906 101.839844 Z M 79.066406 104.566406 C 79.621094 104.6875 80.171875 104.8125 80.722656 104.933594 C 80.089844 104.234375 79.46875 103.519531 78.816406 102.839844 C 78.25 102.246094 77.660156 102.242188 76.84375 102.066406 C 77.585938 102.898438 78.328125 103.734375 79.066406 104.566406 Z M 79.066406 104.566406 " fill-opacity="1" fill-rule="nonzero"/><path fill="#ffffff" d="M 47.964844 41.910156 C 49.953125 47.160156 51.941406 52.410156 53.929688 57.664062 C 49.878906 58.902344 45.828125 60.140625 41.777344 61.378906 L 41.777344 56.242188 C 41.777344 54.28125 41.902344 52.429688 41.15625 50.5625 C 43.019531 49.988281 44.949219 49.589844 46.3125 48.074219 C 47.914062 46.292969 47.964844 44.160156 47.964844 41.910156 Z M 43.808594 50.398438 C 43.1875 50.589844 42.5625 50.777344 41.941406 50.96875 C 42.539062 52.621094 42.371094 54.457031 42.371094 56.1875 L 42.371094 60.542969 C 45.949219 59.441406 49.527344 58.34375 53.109375 57.246094 C 51.550781 53.125 49.992188 49.007812 48.433594 44.890625 C 48.015625 47.394531 46.269531 49.632812 43.808594 50.398438 Z M 43.808594 50.398438 " fill-opacity="1" fill-rule="nonzero"/><path fill="#ffffff" d="M 6.304688 34.179688 C 6.617188 33.679688 7.273438 33.578125 7.796875 33.414062 C 8.6875 33.136719 9.578125 32.859375 10.472656 32.582031 C 11.878906 32.148438 13.285156 31.710938 14.691406 31.273438 C 14.171875 29.808594 13.652344 28.339844 13.132812 26.875 C 12.640625 25.492188 12.621094 24.40625 12.621094 22.917969 L 12.621094 18.878906 C 12.621094 17.902344 12.292969 13.882812 14.429688 15.210938 C 15.085938 15.621094 15.613281 16.585938 16.085938 17.167969 C 17.234375 18.574219 18.382812 19.980469 19.53125 21.386719 C 21.714844 24.070312 23.90625 26.75 26.09375 29.429688 C 26.511719 29.945312 26.550781 30.03125 27.167969 30.1875 C 28.605469 30.550781 30.066406 30.847656 31.515625 31.175781 C 34.921875 31.949219 38.324219 32.722656 41.730469 33.496094 C 42.789062 33.734375 43.300781 34.1875 43.328125 35.339844 C 43.34375 35.84375 43.328125 36.351562 43.328125 36.855469 L 43.328125 40.015625 C 43.328125 41.167969 43.394531 42.347656 43.316406 43.5 C 43.199219 45.242188 40.996094 45.394531 39.601562 45.828125 C 38.023438 46.320312 36.445312 46.8125 34.867188 47.300781 C 35.34375 48.59375 35.828125 49.878906 36.304688 51.171875 C 36.636719 52.0625 37.027344 52.875 37.0625 53.828125 C 37.167969 56.550781 37.320312 59.5 37.0625 62.210938 C 36.957031 63.351562 35.925781 64.027344 34.964844 63.167969 C 34.824219 63.039062 34.714844 62.863281 34.589844 62.71875 C 33.785156 61.789062 33.011719 60.824219 32.226562 59.878906 C 29.988281 57.199219 27.753906 54.515625 25.519531 51.832031 C 24.65625 50.796875 23.632812 48.839844 22.308594 48.4375 C 19.390625 47.542969 16.269531 47.070312 13.296875 46.398438 C 11.769531 46.050781 10.238281 45.707031 8.710938 45.359375 C 7.984375 45.195312 6.652344 45.128906 6.230469 44.40625 C 5.78125 43.632812 6.0625 42 6.0625 41.125 L 6.0625 37.96875 C 6.0625 36.996094 5.726562 35 6.304688 34.179688 Z M 35.890625 53.480469 C 34.050781 48.503906 32.210938 43.527344 30.371094 38.550781 C 34.300781 37.328125 38.234375 36.109375 42.167969 34.886719 C 37.113281 33.738281 32.054688 32.585938 27 31.4375 C 26.628906 31.351562 26.210938 31.324219 25.917969 31.109375 C 25.34375 30.691406 24.859375 29.8125 24.414062 29.265625 C 22.371094 26.753906 20.324219 24.242188 18.277344 21.730469 C 16.800781 19.917969 15.324219 18.101562 13.847656 16.289062 C 15.605469 21.265625 17.363281 26.238281 19.125 31.210938 C 15.183594 32.433594 11.242188 33.660156 7.300781 34.886719 C 12.359375 36.03125 17.414062 37.175781 22.472656 38.324219 C 22.890625 38.417969 23.269531 38.449219 23.589844 38.691406 C 24.320312 39.242188 24.929688 40.304688 25.507812 41 C 27.628906 43.554688 29.75 46.105469 31.871094 48.660156 C 33.210938 50.269531 34.550781 51.875 35.890625 53.480469 Z M 35.890625 53.480469 " fill-opacity="1" fill-rule="nonzero"/><path fill="#ffffff" d="M 43.546875 16.46875 C 43.34375 15.941406 43.46875 15.144531 43.46875 14.601562 L 43.46875 11.101562 C 43.46875 10.046875 42.84375 5.898438 44.632812 5.894531 C 45.777344 5.890625 47.210938 8.320312 47.824219 9.042969 C 52.933594 15.054688 58.042969 21.066406 63.152344 27.074219 C 69.386719 34.410156 75.621094 41.746094 81.855469 49.082031 C 84.046875 51.660156 86.238281 54.238281 88.429688 56.816406 C 89.039062 57.53125 89.648438 58.25 90.257812 58.96875 C 90.429688 59.167969 90.640625 59.546875 90.871094 59.683594 C 91.183594 59.875 91.789062 59.886719 92.140625 59.964844 C 93.234375 60.203125 94.332031 60.445312 95.429688 60.6875 C 99.105469 61.492188 102.78125 62.300781 106.460938 63.109375 C 115.96875 65.195312 125.480469 67.285156 134.992188 69.375 C 138.667969 70.179688 142.34375 70.988281 146.019531 71.796875 C 147.488281 72.117188 149.164062 72.273438 150.578125 72.796875 C 152.078125 73.351562 151.605469 76.019531 151.597656 77.320312 C 151.59375 78.582031 151.605469 79.847656 151.597656 81.109375 C 151.597656 81.796875 151.804688 83.015625 151.414062 83.609375 C 151.023438 84.199219 150.019531 84.335938 149.386719 84.527344 C 145.941406 85.589844 142.496094 86.652344 139.046875 87.710938 C 130.792969 90.253906 122.539062 92.796875 114.285156 95.335938 C 113.742188 95.503906 113.199219 95.671875 112.660156 95.839844 C 115.058594 101.792969 117.773438 107.628906 120.351562 113.503906 C 123.992188 121.796875 127.628906 130.089844 131.269531 138.382812 C 131.558594 139.042969 131.929688 139.710938 132.15625 140.394531 C 132.585938 141.714844 132.289062 143.453125 132.289062 144.820312 L 132.289062 148.410156 C 132.289062 149.128906 132.460938 150.199219 131.875 150.71875 C 130.964844 151.523438 130.199219 150.679688 129.617188 150.039062 C 125.101562 145.101562 120.585938 140.164062 116.070312 135.222656 C 109.125 127.628906 102.179688 120.03125 95.234375 112.4375 C 90.757812 107.542969 86.28125 102.644531 81.804688 97.75 C 81.144531 97.027344 80.496094 97.046875 79.511719 96.828125 C 76.371094 96.140625 73.226562 95.449219 70.085938 94.761719 C 60.222656 92.59375 50.363281 90.429688 40.5 88.265625 C 36.28125 87.339844 32.0625 86.414062 27.84375 85.484375 C 25.847656 85.046875 23.679688 84.785156 21.734375 84.144531 C 20.234375 83.648438 20.660156 81.207031 20.667969 79.894531 C 20.675781 78.566406 20.679688 77.234375 20.679688 75.90625 C 20.679688 75.492188 20.863281 74.042969 20.402344 74.035156 C 20.882812 73.90625 20.984375 73.082031 21.613281 72.808594 C 21.789062 72.730469 21.996094 72.691406 22.179688 72.632812 C 23.011719 72.378906 23.84375 72.125 24.671875 71.871094 C 27.683594 70.953125 30.691406 70.03125 33.703125 69.113281 C 40.917969 66.90625 48.132812 64.703125 55.347656 62.496094 C 57.050781 61.976562 58.753906 61.457031 60.460938 60.933594 C 58.550781 55.921875 56.644531 50.90625 54.738281 45.890625 C 51.710938 37.933594 48.683594 29.972656 45.65625 22.015625 C 44.953125 20.167969 44.25 18.316406 43.542969 16.46875 Z M 21.894531 74.035156 C 31.324219 76.109375 40.757812 78.179688 50.191406 80.253906 C 58.027344 81.976562 65.867188 83.664062 73.714844 85.328125 C 76.304688 85.875 78.894531 86.421875 81.484375 86.972656 C 82.191406 87.121094 82.554688 87.117188 83.039062 87.574219 C 85.222656 89.648438 87.136719 92.125 89.148438 94.359375 C 97.269531 103.375 105.390625 112.390625 113.515625 121.402344 C 117.273438 125.578125 121.03125 129.75 124.792969 133.921875 C 126.773438 136.121094 128.648438 138.582031 130.8125 140.605469 C 130.914062 140.699219 131 140.8125 131.089844 140.914062 C 128.429688 134.851562 125.773438 128.789062 123.113281 122.726562 C 118.894531 113.109375 114.675781 103.496094 110.457031 93.878906 C 109.484375 91.664062 108.515625 89.449219 107.542969 87.238281 C 112.355469 85.753906 117.171875 84.273438 121.984375 82.789062 C 129.675781 80.421875 137.363281 78.054688 145.050781 75.683594 C 146.835938 75.136719 148.621094 74.585938 150.40625 74.035156 C 142.785156 72.363281 135.167969 70.691406 127.546875 69.019531 C 116.539062 66.601562 105.53125 64.183594 94.523438 61.769531 C 93.300781 61.5 92.066406 61.246094 90.84375 60.960938 C 90.296875 60.832031 90.273438 60.816406 89.894531 60.390625 C 86.984375 57.082031 84.183594 53.667969 81.332031 50.308594 C 75.621094 43.585938 69.910156 36.859375 64.199219 30.136719 C 57.890625 22.714844 51.582031 15.292969 45.273438 7.871094 C 45.074219 7.632812 44.871094 7.394531 44.667969 7.160156 C 47.261719 13.957031 49.847656 20.757812 52.4375 27.558594 C 55.183594 34.769531 57.839844 42.023438 60.675781 49.199219 C 62.214844 53.097656 63.851562 56.957031 65.4375 60.835938 C 60.90625 62.167969 56.378906 63.507812 51.859375 64.886719 C 43.996094 67.285156 36.128906 69.691406 28.261719 72.089844 C 26.140625 72.738281 24.015625 73.386719 21.894531 74.035156 Z M 21.894531 74.035156 " fill-opacity="1" fill-rule="nonzero"/><path fill="#ffffff" d="M 61.242188 105.300781 C 60.835938 104.246094 61.167969 102.511719 61.167969 101.421875 C 61.167969 99.78125 61.152344 98.140625 61.167969 96.496094 C 61.183594 95.09375 62.199219 94.121094 63.4375 95.285156 C 64.210938 96.011719 64.882812 96.910156 65.585938 97.707031 C 68.03125 100.464844 70.480469 103.226562 72.929688 105.988281 C 73.84375 107.015625 74.753906 108.046875 75.671875 109.078125 C 75.996094 109.445312 76.140625 109.640625 76.554688 109.8125 C 77.601562 110.242188 78.957031 110.328125 80.054688 110.5625 C 81.898438 110.960938 83.742188 111.355469 85.585938 111.753906 C 87.96875 112.265625 90.65625 112.511719 92.953125 113.335938 C 94.347656 113.835938 93.960938 115.9375 93.949219 117.140625 C 93.941406 118.117188 93.972656 119.101562 93.960938 120.082031 C 93.953125 121.15625 94.074219 122.300781 93.960938 123.367188 C 93.792969 124.976562 91.238281 125.183594 89.976562 125.558594 C 88.464844 126.011719 86.949219 126.464844 85.433594 126.917969 C 86.050781 128.386719 86.667969 129.855469 87.289062 131.328125 C 87.804688 132.5625 87.949219 133.449219 87.949219 134.785156 C 87.949219 136.996094 87.960938 139.207031 87.949219 141.417969 C 87.941406 142.667969 87.109375 143.980469 85.789062 142.859375 C 85.625 142.71875 85.488281 142.527344 85.34375 142.367188 C 84.363281 141.285156 83.386719 140.207031 82.410156 139.125 C 79.695312 136.125 76.980469 133.125 74.265625 130.125 C 73.785156 129.59375 73.1875 128.609375 72.5625 128.242188 C 71.886719 127.847656 70.609375 127.824219 69.859375 127.664062 C 65.945312 126.820312 62.027344 125.980469 58.113281 125.140625 C 57.308594 124.964844 55.753906 124.914062 55.175781 124.226562 C 54.71875 123.679688 54.871094 122.628906 54.875 121.953125 C 54.878906 120.855469 54.871094 119.761719 54.875 118.667969 C 54.878906 117.558594 54.882812 116.453125 54.882812 115.34375 C 54.882812 114.964844 54.820312 114.496094 54.960938 114.132812 C 55.234375 113.4375 55.910156 113.320312 56.539062 113.132812 C 58.425781 112.570312 60.3125 112.003906 62.199219 111.441406 C 62.652344 111.304688 63.101562 111.171875 63.554688 111.039062 C 62.78125 109.125 62.011719 107.214844 61.242188 105.300781 Z M 56.128906 114.574219 C 61.304688 115.703125 66.496094 116.785156 71.679688 117.882812 C 72.183594 117.988281 72.992188 118.007812 73.433594 118.277344 C 73.980469 118.609375 74.480469 119.4375 74.902344 119.90625 C 77.132812 122.382812 79.363281 124.855469 81.597656 127.332031 C 83.261719 129.179688 84.929688 131.027344 86.597656 132.878906 C 84.550781 128.003906 82.503906 123.125 80.457031 118.25 C 84.550781 117.023438 88.644531 115.800781 92.738281 114.574219 C 87.492188 113.445312 82.25 112.316406 77.003906 111.191406 C 76.578125 111.097656 75.96875 111.070312 75.601562 110.847656 C 75.050781 110.511719 74.535156 109.648438 74.113281 109.171875 C 71.925781 106.710938 69.742188 104.25 67.554688 101.785156 C 65.90625 99.929688 64.257812 98.074219 62.609375 96.21875 C 64.609375 101.113281 66.609375 106.003906 68.609375 110.898438 C 64.449219 112.121094 60.285156 113.339844 56.128906 114.574219 Z M 56.128906 114.574219 " fill-opacity="1" fill-rule="nonzero"/></g></g><g clip-path="url(#345030c7b7)"><path fill="#ffffff" d="M 164.992188 239.121094 C 165.320312 238.433594 166.300781 238.433594 166.625 239.121094 L 168.226562 242.472656 C 168.359375 242.75 168.621094 242.941406 168.925781 242.980469 L 172.605469 243.464844 C 173.359375 243.5625 173.660156 244.492188 173.109375 245.015625 L 170.417969 247.574219 C 170.195312 247.785156 170.09375 248.09375 170.148438 248.394531 L 170.828125 252.046875 C 170.964844 252.792969 170.175781 253.367188 169.503906 253.007812 L 166.242188 251.234375 C 165.972656 251.089844 165.648438 251.089844 165.378906 251.234375 L 162.113281 253.007812 C 161.445312 253.367188 160.65625 252.792969 160.792969 252.046875 L 161.46875 248.394531 C 161.527344 248.09375 161.425781 247.785156 161.203125 247.574219 L 158.511719 245.015625 C 157.957031 244.492188 158.261719 243.5625 159.015625 243.464844 L 162.695312 242.980469 C 163 242.941406 163.261719 242.75 163.394531 242.472656 Z M 164.992188 239.121094 " fill-opacity="1" fill-rule="nonzero"/></g><g clip-path="url(#965232988c)"><path fill="#ffffff" d="M 186.679688 239.121094 C 187.003906 238.433594 187.984375 238.433594 188.3125 239.121094 L 189.910156 242.472656 C 190.042969 242.75 190.304688 242.941406 190.609375 242.980469 L 194.289062 243.464844 C 195.042969 243.5625 195.347656 244.492188 194.792969 245.015625 L 192.101562 247.574219 C 191.878906 247.785156 191.777344 248.09375 191.835938 248.394531 L 192.511719 252.046875 C 192.648438 252.792969 191.859375 253.367188 191.191406 253.007812 L 187.925781 251.234375 C 187.65625 251.089844 187.332031 251.089844 187.0625 251.234375 L 183.800781 253.007812 C 183.128906 253.367188 182.339844 252.792969 182.476562 252.046875 L 183.15625 248.394531 C 183.210938 248.09375 183.109375 247.785156 182.886719 247.574219 L 180.195312 245.015625 C 179.644531 244.492188 179.945312 243.5625 180.699219 243.464844 L 184.378906 242.980469 C 184.683594 242.941406 184.945312 242.75 185.078125 242.472656 Z M 186.679688 239.121094 " fill-opacity="1" fill-rule="nonzero"/></g><g transform="matrix(1, 0, 0, 1, 127, 144)"><g clip-path="url(#6232d2e1a4)"><g fill="#ffffff" fill-opacity="1"><g transform="translate(8.586455, 59.697085)"><g><path d="M 19.714844 6.667969 C 17.730469 6.667969 15.683594 6.476562 13.570312 6.089844 C 11.484375 5.710938 9.445312 5.15625 7.457031 4.433594 C 5.40625 3.6875 3.535156 2.796875 1.84375 1.761719 C -0.101562 0.566406 -1.691406 -0.800781 -2.917969 -2.339844 C -4.570312 -4.417969 -5.398438 -6.703125 -5.398438 -9.195312 C -5.398438 -11.0625 -4.738281 -12.894531 -3.417969 -14.695312 C -2.644531 -15.75 -1.679688 -16.820312 -0.523438 -17.914062 C 0.53125 -18.90625 1.664062 -19.863281 2.882812 -20.789062 C 4.015625 -21.648438 5.101562 -22.425781 6.132812 -23.128906 L 10.953125 -26.398438 L 14.289062 -21.628906 C 15.445312 -19.980469 16.851562 -18.421875 18.515625 -16.953125 C 20.101562 -15.554688 21.824219 -14.425781 23.675781 -13.5625 C 25.257812 -12.828125 26.816406 -12.460938 28.351562 -12.460938 C 28.90625 -12.460938 29.464844 -12.542969 30.023438 -12.707031 C 30.144531 -12.742188 30.234375 -12.777344 30.296875 -12.8125 L 30.304688 -12.816406 C 30.292969 -12.808594 30.285156 -12.800781 30.273438 -12.789062 C 30.03125 -12.554688 29.847656 -12.273438 29.714844 -11.941406 C 29.609375 -11.683594 29.558594 -11.445312 29.558594 -11.230469 C 29.558594 -11.054688 29.601562 -10.867188 29.691406 -10.660156 C 29.777344 -10.46875 29.871094 -10.320312 29.984375 -10.214844 C 29.554688 -10.621094 28.863281 -11.023438 27.914062 -11.425781 C 26.523438 -12.011719 24.933594 -12.558594 23.148438 -13.070312 C 21.148438 -13.640625 19.085938 -14.21875 16.953125 -14.808594 C 14.636719 -15.445312 12.394531 -16.164062 10.222656 -16.96875 C 7.820312 -17.855469 5.636719 -18.921875 3.679688 -20.15625 C 1.351562 -21.628906 -0.519531 -23.4375 -1.933594 -25.585938 C -3.53125 -28.011719 -4.332031 -30.796875 -4.332031 -33.941406 C -4.332031 -36.125 -3.816406 -38.386719 -2.789062 -40.71875 C -1.894531 -42.746094 -0.6875 -44.730469 0.835938 -46.679688 C 2.324219 -48.582031 4.027344 -50.316406 5.941406 -51.878906 C 7.945312 -53.515625 10.105469 -54.835938 12.425781 -55.832031 C 14.984375 -56.929688 17.601562 -57.480469 20.273438 -57.480469 C 21.980469 -57.480469 23.859375 -57.367188 25.90625 -57.140625 C 27.921875 -56.914062 29.953125 -56.589844 32 -56.160156 C 34.105469 -55.722656 36.0625 -55.191406 37.871094 -54.566406 C 40.011719 -53.832031 41.792969 -52.941406 43.222656 -51.894531 C 44.289062 -51.113281 45.136719 -50.234375 45.769531 -49.25 C 46.632812 -47.910156 47.0625 -46.464844 47.0625 -44.917969 C 47.0625 -42.992188 46.476562 -41.109375 45.304688 -39.261719 C 44.535156 -38.046875 43.589844 -36.855469 42.46875 -35.691406 C 41.492188 -34.675781 40.507812 -33.742188 39.519531 -32.894531 C 38.546875 -32.054688 37.6875 -31.367188 36.941406 -30.828125 C 36.074219 -30.203125 35.464844 -29.800781 35.109375 -29.625 L 30.664062 -27.398438 L 27.710938 -31.402344 C 26.890625 -32.519531 25.890625 -33.71875 24.710938 -35.003906 C 23.609375 -36.207031 22.394531 -37.328125 21.074219 -38.363281 C 19.855469 -39.320312 18.617188 -40.089844 17.351562 -40.679688 C 16.464844 -41.089844 15.609375 -41.296875 14.785156 -41.296875 C 14.007812 -41.296875 13.390625 -41.238281 12.9375 -41.117188 C 12.828125 -41.085938 12.746094 -41.0625 12.699219 -41.035156 C 12.730469 -41.054688 12.78125 -41.085938 12.839844 -41.136719 L 12.832031 -41.136719 C 12.886719 -41.199219 12.9375 -41.277344 12.984375 -41.375 C 13.109375 -41.621094 13.171875 -41.871094 13.171875 -42.121094 C 13.171875 -42.082031 13.175781 -42.054688 13.175781 -42.042969 C 13.171875 -42.070312 13.164062 -42.101562 13.148438 -42.140625 C 13.105469 -42.25 13.050781 -42.34375 12.984375 -42.414062 C 13.359375 -42.015625 13.96875 -41.628906 14.808594 -41.261719 C 16.128906 -40.6875 17.632812 -40.175781 19.324219 -39.726562 C 21.257812 -39.214844 23.265625 -38.710938 25.335938 -38.210938 C 27.605469 -37.667969 29.800781 -37.050781 31.929688 -36.359375 C 34.300781 -35.589844 36.460938 -34.644531 38.410156 -33.527344 C 40.765625 -32.171875 42.664062 -30.460938 44.101562 -28.398438 C 45.738281 -26.046875 46.554688 -23.289062 46.554688 -20.121094 C 46.554688 -17.414062 45.945312 -14.695312 44.71875 -11.964844 C 43.621094 -9.515625 42.160156 -7.183594 40.332031 -4.960938 C 38.566406 -2.8125 36.59375 -0.890625 34.417969 0.800781 C 32.195312 2.53125 29.898438 3.910156 27.527344 4.9375 C 24.863281 6.09375 22.257812 6.667969 19.714844 6.667969 Z M 19.714844 -5.144531 C 20.625 -5.144531 21.664062 -5.398438 22.828125 -5.902344 C 24.285156 -6.535156 25.730469 -7.40625 27.164062 -8.523438 C 28.648438 -9.679688 29.996094 -10.992188 31.207031 -12.464844 C 32.363281 -13.871094 33.273438 -15.3125 33.9375 -16.796875 C 34.472656 -17.992188 34.742188 -19.101562 34.742188 -20.121094 C 34.742188 -20.816406 34.628906 -21.324219 34.402344 -21.648438 C 33.976562 -22.261719 33.351562 -22.804688 32.523438 -23.28125 C 31.285156 -23.992188 29.871094 -24.605469 28.28125 -25.121094 C 26.445312 -25.71875 24.546875 -26.253906 22.578125 -26.722656 C 20.417969 -27.242188 18.324219 -27.769531 16.296875 -28.308594 C 14.023438 -28.910156 11.953125 -29.617188 10.085938 -30.433594 C 7.746094 -31.453125 5.832031 -32.761719 4.34375 -34.359375 C 3.34375 -35.433594 2.589844 -36.644531 2.082031 -38 C 1.601562 -39.289062 1.359375 -40.664062 1.359375 -42.121094 C 1.359375 -43.765625 1.726562 -45.304688 2.460938 -46.746094 C 3.140625 -48.078125 4.105469 -49.253906 5.351562 -50.273438 C 7.660156 -52.164062 10.804688 -53.109375 14.785156 -53.109375 C 17.351562 -53.109375 19.863281 -52.539062 22.332031 -51.390625 C 24.421875 -50.421875 26.433594 -49.175781 28.367188 -47.660156 C 30.195312 -46.222656 31.878906 -44.667969 33.417969 -42.992188 C 34.878906 -41.394531 36.148438 -39.871094 37.222656 -38.410156 L 32.46875 -34.90625 L 29.828125 -40.191406 C 29.625 -40.089844 29.445312 -39.988281 29.292969 -39.886719 C 29.308594 -39.894531 29.335938 -39.917969 29.386719 -39.949219 C 29.53125 -40.050781 29.746094 -40.203125 30.027344 -40.40625 C 30.5 -40.75 31.097656 -41.230469 31.816406 -41.851562 C 32.523438 -42.457031 33.234375 -43.132812 33.953125 -43.878906 C 34.523438 -44.476562 34.984375 -45.046875 35.332031 -45.59375 C 35.355469 -45.628906 35.371094 -45.660156 35.382812 -45.679688 C 35.371094 -45.660156 35.363281 -45.632812 35.347656 -45.59375 C 35.28125 -45.398438 35.25 -45.171875 35.25 -44.917969 C 35.25 -44.148438 35.445312 -43.460938 35.835938 -42.855469 C 35.992188 -42.609375 36.128906 -42.445312 36.246094 -42.359375 C 35.777344 -42.703125 35.039062 -43.046875 34.027344 -43.394531 C 32.683594 -43.859375 31.203125 -44.257812 29.582031 -44.597656 C 27.902344 -44.949219 26.242188 -45.214844 24.601562 -45.398438 C 22.988281 -45.578125 21.546875 -45.667969 20.273438 -45.667969 C 19.222656 -45.667969 18.160156 -45.4375 17.09375 -44.976562 C 15.789062 -44.417969 14.5625 -43.667969 13.417969 -42.730469 C 12.179688 -41.722656 11.089844 -40.609375 10.140625 -39.398438 C 9.222656 -38.226562 8.519531 -37.078125 8.023438 -35.953125 C 7.664062 -35.136719 7.480469 -34.46875 7.480469 -33.941406 C 7.480469 -33.15625 7.632812 -32.539062 7.929688 -32.085938 C 8.410156 -31.355469 9.097656 -30.707031 9.988281 -30.144531 C 11.246094 -29.351562 12.691406 -28.652344 14.320312 -28.050781 C 16.175781 -27.363281 18.101562 -26.746094 20.089844 -26.195312 C 22.257812 -25.597656 24.359375 -25.011719 26.394531 -24.429688 C 28.636719 -23.789062 30.671875 -23.082031 32.5 -22.3125 C 34.769531 -21.359375 36.636719 -20.1875 38.105469 -18.796875 C 39.164062 -17.792969 39.972656 -16.652344 40.527344 -15.367188 C 41.09375 -14.070312 41.375 -12.691406 41.375 -11.230469 C 41.375 -9.929688 41.144531 -8.703125 40.683594 -7.554688 C 40.195312 -6.335938 39.476562 -5.265625 38.527344 -4.335938 C 37.109375 -2.953125 35.382812 -1.964844 33.339844 -1.367188 C 31.695312 -0.886719 30.035156 -0.648438 28.351562 -0.648438 C 25.078125 -0.648438 21.859375 -1.382812 18.699219 -2.847656 C 15.8125 -4.191406 13.144531 -5.9375 10.699219 -8.09375 C 8.332031 -10.183594 6.304688 -12.4375 4.613281 -14.855469 L 9.449219 -18.242188 L 12.769531 -13.351562 C 11.90625 -12.769531 10.988281 -12.109375 10.023438 -11.375 C 9.140625 -10.707031 8.328125 -10.023438 7.585938 -9.320312 C 6.949219 -8.71875 6.457031 -8.183594 6.109375 -7.710938 C 6.097656 -7.691406 6.085938 -7.675781 6.074219 -7.660156 L 6.078125 -7.664062 C 6.105469 -7.714844 6.136719 -7.777344 6.167969 -7.855469 C 6.332031 -8.246094 6.414062 -8.695312 6.414062 -9.195312 C 6.414062 -9.355469 6.390625 -9.503906 6.335938 -9.644531 C 6.320312 -9.6875 6.304688 -9.71875 6.289062 -9.746094 C 6.292969 -9.738281 6.304688 -9.726562 6.324219 -9.703125 C 6.6875 -9.246094 7.25 -8.78125 8.015625 -8.316406 C 9.03125 -7.691406 10.191406 -7.144531 11.496094 -6.667969 C 12.859375 -6.171875 14.261719 -5.792969 15.695312 -5.53125 C 17.105469 -5.273438 18.445312 -5.144531 19.714844 -5.144531 Z M 19.714844 -5.144531 "/></g></g></g><g fill="#ffffff" fill-opacity="1"><g transform="translate(50.25014, 59.697085)"><g/></g></g><g fill="#ffffff" fill-opacity="1"><g transform="translate(62.95249, 59.697085)"><g><path d="M -5.398438 -45.628906 C -5.398438 -46.574219 -5.1875 -47.472656 -4.761719 -48.320312 C -4.46875 -48.910156 -4.085938 -49.4375 -3.617188 -49.90625 C -3.132812 -50.394531 -2.570312 -50.796875 -1.929688 -51.117188 C -1.878906 -51.140625 -1.664062 -51.269531 -1.28125 -51.503906 C -0.785156 -51.808594 0.191406 -52.425781 1.65625 -53.355469 C 3.046875 -54.257812 4.476562 -55.085938 5.941406 -55.839844 C 8.074219 -56.933594 10.058594 -57.480469 11.890625 -57.480469 C 13.429688 -57.480469 14.894531 -57.207031 16.277344 -56.664062 C 17.660156 -56.121094 18.917969 -55.328125 20.046875 -54.277344 C 21.773438 -52.675781 23.226562 -50.632812 24.398438 -48.148438 C 25.390625 -46.042969 26.226562 -43.742188 26.910156 -41.242188 C 27.542969 -38.925781 28.085938 -36.59375 28.539062 -34.246094 C 28.972656 -31.984375 29.347656 -29.875 29.664062 -27.917969 C 29.949219 -26.136719 30.214844 -24.691406 30.460938 -23.585938 C 31.3125 -19.921875 32.183594 -16.859375 33.070312 -14.402344 C 33.914062 -12.0625 34.71875 -10.238281 35.488281 -8.921875 L 30.386719 -5.945312 L 35.417969 -9.039062 C 35.152344 -9.472656 34.78125 -9.820312 34.3125 -10.082031 C 34.269531 -10.109375 34.1875 -10.140625 34.070312 -10.1875 C 33.554688 -10.382812 32.984375 -10.480469 32.367188 -10.480469 C 31.578125 -10.480469 30.828125 -10.308594 30.113281 -9.96875 C 29.523438 -9.6875 29.011719 -9.316406 28.582031 -8.847656 C 28.171875 -8.410156 27.894531 -7.96875 27.742188 -7.523438 C 27.925781 -8.066406 28.152344 -8.863281 28.417969 -9.910156 C 28.753906 -11.226562 29.175781 -12.6875 29.683594 -14.289062 C 30.585938 -17.027344 31.519531 -19.585938 32.484375 -21.960938 C 33.328125 -24.042969 34.039062 -26.039062 34.609375 -27.945312 C 35.070312 -29.472656 35.300781 -31 35.300781 -32.519531 C 35.300781 -33.074219 35.207031 -33.566406 35.019531 -33.988281 C 34.964844 -34.113281 34.878906 -34.214844 34.765625 -34.289062 L 34.773438 -34.28125 C 34.75 -34.292969 34.71875 -34.300781 34.679688 -34.3125 C 34.492188 -34.363281 34.246094 -34.386719 33.941406 -34.386719 C 33.464844 -34.386719 33.128906 -34.347656 32.929688 -34.273438 C 32.6875 -34.183594 32.492188 -34.101562 32.34375 -34.03125 C 32.3125 -34.015625 32.292969 -34.003906 32.28125 -33.996094 C 32.3125 -34.015625 32.351562 -34.042969 32.398438 -34.074219 L 31.738281 -33.59375 L 28.25 -38.363281 L 32.429688 -34.183594 C 31.605469 -33.363281 30.640625 -32.8125 29.53125 -32.535156 C 28.066406 -32.171875 26.660156 -32.324219 25.304688 -33.003906 C 24.652344 -33.328125 24.078125 -33.753906 23.582031 -34.285156 C 23.007812 -34.890625 22.578125 -35.589844 22.292969 -36.375 C 21.863281 -37.554688 21.804688 -38.761719 22.113281 -40 L 22.144531 -40.117188 L 25.691406 -52.191406 L 26.539062 -53.164062 C 27.921875 -54.753906 29.679688 -55.90625 31.820312 -56.617188 C 33.542969 -57.191406 35.351562 -57.480469 37.246094 -57.480469 C 40.808594 -57.480469 43.945312 -56.667969 46.660156 -55.039062 C 49.386719 -53.402344 51.472656 -51.203125 52.917969 -48.445312 C 54.347656 -45.722656 54.984375 -42.742188 54.832031 -39.507812 C 54.738281 -37.3125 54.214844 -35 53.269531 -32.5625 C 52.464844 -30.503906 51.464844 -28.363281 50.261719 -26.144531 C 49.160156 -24.113281 48.003906 -22.035156 46.800781 -19.917969 C 45.664062 -17.921875 44.59375 -15.925781 43.585938 -13.929688 C 42.664062 -12.097656 41.914062 -10.332031 41.34375 -8.636719 C 40.890625 -7.28125 40.660156 -6.046875 40.660156 -4.929688 C 40.660156 -4.621094 40.671875 -4.378906 40.695312 -4.203125 C 40.699219 -4.183594 40.703125 -4.167969 40.703125 -4.15625 C 40.703125 -4.15625 40.703125 -4.160156 40.699219 -4.171875 C 40.683594 -4.242188 40.65625 -4.324219 40.621094 -4.417969 C 40.613281 -4.449219 40.582031 -4.503906 40.53125 -4.589844 C 40.375 -4.859375 40.160156 -5.117188 39.894531 -5.367188 C 39.71875 -5.535156 39.445312 -5.703125 39.085938 -5.871094 C 39.757812 -5.558594 40.351562 -5.167969 40.863281 -4.695312 C 41.371094 -4.226562 41.789062 -3.691406 42.113281 -3.09375 C 42.601562 -2.191406 42.847656 -1.226562 42.847656 -0.203125 C 42.847656 1.257812 42.378906 2.546875 41.445312 3.667969 C 40.785156 4.457031 39.972656 5.046875 39.007812 5.433594 C 38.21875 5.75 37.359375 5.90625 36.433594 5.90625 L 23.730469 5.90625 C 22.113281 5.90625 20.574219 5.617188 19.117188 5.039062 C 17.679688 4.46875 16.367188 3.636719 15.175781 2.539062 C 13.3125 0.820312 11.734375 -1.402344 10.441406 -4.121094 C 9.320312 -6.480469 8.375 -9.105469 7.605469 -11.992188 C 6.882812 -14.695312 6.273438 -17.46875 5.769531 -20.308594 C 5.332031 -22.894531 4.867188 -25.4375 4.367188 -27.9375 C 3.902344 -30.289062 3.292969 -32.671875 2.542969 -35.082031 C 2.085938 -36.566406 1.632812 -37.660156 1.175781 -38.363281 C 0.949219 -38.707031 0.742188 -38.988281 0.554688 -39.203125 C 0.464844 -39.304688 0.410156 -39.363281 0.386719 -39.378906 C 0.21875 -39.5 0.0898438 -39.585938 -0.0078125 -39.636719 C 0.0546875 -39.605469 0.160156 -39.566406 0.308594 -39.523438 C 0.171875 -39.5625 0.0820312 -39.589844 0.0351562 -39.597656 C 0.277344 -39.542969 0.570312 -39.519531 0.914062 -39.519531 C -0.152344 -39.519531 -1.132812 -39.742188 -2.03125 -40.191406 C -3 -40.675781 -3.785156 -41.367188 -4.382812 -42.261719 C -5.058594 -43.28125 -5.398438 -44.402344 -5.398438 -45.628906 Z M 6.414062 -45.628906 C 6.414062 -46.785156 6.09375 -47.847656 5.449219 -48.816406 C 4.886719 -49.660156 4.152344 -50.308594 3.25 -50.757812 C 2.488281 -51.140625 1.707031 -51.332031 0.914062 -51.332031 C 1.644531 -51.332031 2.539062 -51.179688 3.601562 -50.871094 C 4.789062 -50.523438 6.035156 -49.878906 7.335938 -48.933594 C 8.667969 -47.964844 9.914062 -46.589844 11.070312 -44.816406 C 12.136719 -43.179688 13.054688 -41.105469 13.820312 -38.597656 C 14.695312 -35.789062 15.40625 -33.003906 15.957031 -30.242188 C 16.476562 -27.628906 16.957031 -25.003906 17.402344 -22.371094 C 17.847656 -19.859375 18.386719 -17.417969 19.019531 -15.039062 C 19.605469 -12.847656 20.300781 -10.898438 21.113281 -9.191406 C 21.75 -7.847656 22.441406 -6.832031 23.1875 -6.148438 C 23.300781 -6.042969 23.394531 -5.972656 23.472656 -5.941406 C 23.53125 -5.917969 23.617188 -5.90625 23.730469 -5.90625 L 36.433594 -5.90625 C 35.84375 -5.90625 35.238281 -5.785156 34.617188 -5.535156 C 33.734375 -5.183594 32.988281 -4.636719 32.371094 -3.894531 C 31.476562 -2.824219 31.03125 -1.59375 31.03125 -0.203125 C 31.03125 0.769531 31.261719 1.683594 31.726562 2.535156 C 32.023438 3.082031 32.398438 3.566406 32.851562 3.984375 C 33.253906 4.355469 33.679688 4.644531 34.132812 4.855469 C 33.332031 4.484375 32.554688 3.945312 31.796875 3.234375 C 30.839844 2.332031 30.089844 1.152344 29.546875 -0.304688 C 29.082031 -1.5625 28.847656 -3.101562 28.847656 -4.929688 C 28.847656 -7.335938 29.28125 -9.824219 30.148438 -12.402344 C 30.898438 -14.632812 31.859375 -16.914062 33.035156 -19.25 C 34.132812 -21.421875 35.296875 -23.589844 36.53125 -25.761719 C 37.695312 -27.808594 38.8125 -29.816406 39.878906 -31.777344 C 40.84375 -33.558594 41.636719 -35.246094 42.257812 -36.84375 C 42.734375 -38.066406 42.992188 -39.140625 43.03125 -40.0625 C 43.082031 -41.164062 42.890625 -42.132812 42.453125 -42.964844 C 42.035156 -43.761719 41.410156 -44.410156 40.582031 -44.90625 C 39.738281 -45.414062 38.625 -45.667969 37.246094 -45.667969 C 36.628906 -45.667969 36.066406 -45.582031 35.554688 -45.410156 C 35.464844 -45.378906 35.402344 -45.351562 35.367188 -45.332031 C 35.390625 -45.347656 35.421875 -45.375 35.453125 -45.410156 L 30.996094 -49.285156 L 36.664062 -47.621094 L 33.511719 -36.898438 L 27.84375 -38.566406 L 33.574219 -37.132812 C 33.851562 -38.234375 33.789062 -39.328125 33.394531 -40.414062 C 33.128906 -41.152344 32.722656 -41.808594 32.183594 -42.382812 C 31.722656 -42.871094 31.1875 -43.269531 30.589844 -43.570312 C 29.335938 -44.195312 28.027344 -44.339844 26.664062 -43.996094 C 25.660156 -43.746094 24.792969 -43.261719 24.074219 -42.539062 L 24.398438 -42.863281 L 25.425781 -43.613281 C 26.304688 -44.257812 27.433594 -44.835938 28.804688 -45.347656 C 30.335938 -45.914062 32.046875 -46.199219 33.941406 -46.199219 C 36.746094 -46.199219 39.179688 -45.523438 41.246094 -44.164062 C 43.300781 -42.816406 44.828125 -41.019531 45.820312 -38.773438 C 46.683594 -36.824219 47.113281 -34.742188 47.113281 -32.519531 C 47.113281 -29.839844 46.71875 -27.179688 45.925781 -24.542969 C 45.246094 -22.28125 44.414062 -19.941406 43.429688 -17.519531 C 42.566406 -15.390625 41.734375 -13.121094 40.941406 -10.707031 C 40.503906 -9.332031 40.148438 -8.097656 39.871094 -7.007812 C 39.527344 -5.652344 39.210938 -4.550781 38.921875 -3.707031 C 38.535156 -2.566406 37.976562 -1.605469 37.246094 -0.816406 C 36.652344 -0.179688 35.96875 0.324219 35.199219 0.695312 C 34.304688 1.121094 33.359375 1.335938 32.367188 1.335938 C 31.136719 1.335938 29.859375 0.964844 28.539062 0.226562 C 27.222656 -0.511719 26.160156 -1.535156 25.355469 -2.847656 L 25.316406 -2.910156 L 25.28125 -2.96875 C 24.152344 -4.90625 23.042969 -7.378906 21.957031 -10.394531 C 20.914062 -13.289062 19.902344 -16.832031 18.929688 -21.023438 C 18.632812 -22.359375 18.320312 -24.03125 18 -26.042969 C 17.703125 -27.878906 17.347656 -29.871094 16.9375 -32.011719 C 16.542969 -34.066406 16.070312 -36.105469 15.515625 -38.125 C 15.011719 -39.960938 14.410156 -41.625 13.710938 -43.109375 C 13.191406 -44.214844 12.625 -45.050781 12.015625 -45.617188 C 11.980469 -45.644531 11.957031 -45.667969 11.9375 -45.679688 C 11.941406 -45.675781 11.949219 -45.671875 11.960938 -45.667969 C 11.972656 -45.664062 11.980469 -45.660156 11.984375 -45.660156 C 11.964844 -45.664062 11.933594 -45.667969 11.890625 -45.667969 C 12 -45.667969 12.09375 -45.671875 12.171875 -45.6875 C 12.179688 -45.6875 12.1875 -45.6875 12.191406 -45.691406 C 12.175781 -45.6875 12.160156 -45.679688 12.136719 -45.675781 C 11.933594 -45.613281 11.664062 -45.496094 11.335938 -45.328125 C 10.226562 -44.757812 9.113281 -44.113281 8 -43.386719 C 6.480469 -42.421875 5.445312 -41.769531 4.890625 -41.429688 C 4.222656 -41.019531 3.707031 -40.726562 3.351562 -40.546875 C 3.855469 -40.800781 4.316406 -41.136719 4.734375 -41.554688 C 5.171875 -41.988281 5.527344 -42.484375 5.804688 -43.039062 C 6.210938 -43.851562 6.414062 -44.714844 6.414062 -45.628906 Z M 6.414062 -45.628906 "/></g></g></g><g fill="#000000" fill-opacity="1"><g transform="translate(8.586455, 59.697085)"><g><path d="M 19.71875 0.765625 C 18.09375 0.765625 16.394531 0.601562 14.625 0.28125 C 12.863281 -0.0390625 11.144531 -0.503906 9.46875 -1.109375 C 7.800781 -1.722656 6.285156 -2.441406 4.921875 -3.265625 C 3.566406 -4.097656 2.492188 -5.015625 1.703125 -6.015625 C 0.910156 -7.015625 0.515625 -8.078125 0.515625 -9.203125 C 0.515625 -9.773438 0.789062 -10.441406 1.34375 -11.203125 C 1.90625 -11.960938 2.632812 -12.765625 3.53125 -13.609375 C 4.425781 -14.460938 5.398438 -15.285156 6.453125 -16.078125 C 7.503906 -16.878906 8.503906 -17.597656 9.453125 -18.234375 C 10.867188 -16.203125 12.582031 -14.296875 14.59375 -12.515625 C 16.613281 -10.742188 18.8125 -9.304688 21.1875 -8.203125 C 23.5625 -7.109375 25.953125 -6.5625 28.359375 -6.5625 C 29.472656 -6.5625 30.578125 -6.71875 31.671875 -7.03125 C 32.773438 -7.351562 33.679688 -7.863281 34.390625 -8.5625 C 35.109375 -9.257812 35.46875 -10.148438 35.46875 -11.234375 C 35.46875 -12.515625 34.992188 -13.601562 34.046875 -14.5 C 33.097656 -15.40625 31.816406 -16.195312 30.203125 -16.875 C 28.597656 -17.550781 26.785156 -18.175781 24.765625 -18.75 C 22.753906 -19.320312 20.671875 -19.90625 18.515625 -20.5 C 16.367188 -21.09375 14.285156 -21.757812 12.265625 -22.5 C 10.253906 -23.25 8.441406 -24.128906 6.828125 -25.140625 C 5.222656 -26.160156 3.945312 -27.390625 3 -28.828125 C 2.050781 -30.273438 1.578125 -31.976562 1.578125 -33.9375 C 1.578125 -35.289062 1.921875 -36.753906 2.609375 -38.328125 C 3.304688 -39.910156 4.265625 -41.476562 5.484375 -43.03125 C 6.703125 -44.59375 8.097656 -46.015625 9.671875 -47.296875 C 11.253906 -48.585938 12.953125 -49.625 14.765625 -50.40625 C 16.578125 -51.1875 18.414062 -51.578125 20.28125 -51.578125 C 21.769531 -51.578125 23.425781 -51.472656 25.25 -51.265625 C 27.082031 -51.066406 28.929688 -50.769531 30.796875 -50.375 C 32.660156 -49.988281 34.378906 -49.523438 35.953125 -48.984375 C 37.523438 -48.441406 38.785156 -47.820312 39.734375 -47.125 C 40.679688 -46.4375 41.15625 -45.703125 41.15625 -44.921875 C 41.15625 -44.140625 40.875 -43.304688 40.3125 -42.421875 C 39.757812 -41.546875 39.054688 -40.664062 38.203125 -39.78125 C 37.359375 -38.90625 36.515625 -38.101562 35.671875 -37.375 C 34.828125 -36.644531 34.097656 -36.054688 33.484375 -35.609375 C 32.878906 -35.171875 32.539062 -34.9375 32.46875 -34.90625 C 31.519531 -36.195312 30.382812 -37.5625 29.0625 -39 C 27.738281 -40.4375 26.289062 -41.773438 24.71875 -43.015625 C 23.144531 -44.253906 21.519531 -45.257812 19.84375 -46.03125 C 18.164062 -46.8125 16.476562 -47.203125 14.78125 -47.203125 C 12.207031 -47.203125 10.3125 -46.703125 9.09375 -45.703125 C 7.875 -44.703125 7.265625 -43.507812 7.265625 -42.125 C 7.265625 -40.632812 7.726562 -39.390625 8.65625 -38.390625 C 9.59375 -37.390625 10.859375 -36.539062 12.453125 -35.84375 C 14.046875 -35.15625 15.832031 -34.546875 17.8125 -34.015625 C 19.789062 -33.492188 21.835938 -32.976562 23.953125 -32.46875 C 26.078125 -31.957031 28.128906 -31.378906 30.109375 -30.734375 C 32.085938 -30.097656 33.875 -29.320312 35.46875 -28.40625 C 37.0625 -27.488281 38.320312 -26.359375 39.25 -25.015625 C 40.1875 -23.679688 40.65625 -22.050781 40.65625 -20.125 C 40.65625 -18.257812 40.210938 -16.34375 39.328125 -14.375 C 38.441406 -12.414062 37.253906 -10.53125 35.765625 -8.71875 C 34.273438 -6.90625 32.613281 -5.285156 30.78125 -3.859375 C 28.957031 -2.441406 27.085938 -1.316406 25.171875 -0.484375 C 23.265625 0.347656 21.445312 0.765625 19.71875 0.765625 Z M 19.71875 0.765625 "/></g></g></g><g fill="#000000" fill-opacity="1"><g transform="translate(50.25014, 59.697085)"><g/></g></g><g fill="#000000" fill-opacity="1"><g transform="translate(62.95249, 59.697085)"><g><path d="M 0.515625 -45.625 C 0.515625 -45.695312 0.582031 -45.765625 0.71875 -45.828125 C 0.914062 -45.929688 1.273438 -46.144531 1.796875 -46.46875 C 2.328125 -46.789062 3.335938 -47.425781 4.828125 -48.375 C 6.078125 -49.1875 7.34375 -49.921875 8.625 -50.578125 C 9.914062 -51.242188 11.003906 -51.578125 11.890625 -51.578125 C 13.484375 -51.578125 14.863281 -51.035156 16.03125 -49.953125 C 17.195312 -48.867188 18.203125 -47.425781 19.046875 -45.625 C 19.898438 -43.832031 20.625 -41.851562 21.21875 -39.6875 C 21.8125 -37.519531 22.316406 -35.332031 22.734375 -33.125 C 23.160156 -30.925781 23.523438 -28.878906 23.828125 -26.984375 C 24.128906 -25.085938 24.414062 -23.53125 24.6875 -22.3125 C 25.601562 -18.375 26.546875 -15.066406 27.515625 -12.390625 C 28.484375 -9.722656 29.441406 -7.570312 30.390625 -5.9375 C 30.660156 -5.5 31.003906 -5.160156 31.421875 -4.921875 C 31.847656 -4.691406 32.164062 -4.578125 32.375 -4.578125 C 32.78125 -4.578125 33.097656 -4.921875 33.328125 -5.609375 C 33.566406 -6.304688 33.835938 -7.253906 34.140625 -8.453125 C 34.453125 -9.660156 34.84375 -11.007812 35.3125 -12.5 C 36.15625 -15.070312 37.035156 -17.484375 37.953125 -19.734375 C 38.867188 -21.992188 39.640625 -24.164062 40.265625 -26.25 C 40.890625 -28.332031 41.203125 -30.421875 41.203125 -32.515625 C 41.203125 -33.910156 40.941406 -35.195312 40.421875 -36.375 C 39.898438 -37.5625 39.09375 -38.507812 38 -39.21875 C 36.914062 -39.9375 35.5625 -40.296875 33.9375 -40.296875 C 32.757812 -40.296875 31.738281 -40.132812 30.875 -39.8125 C 30.007812 -39.488281 29.351562 -39.164062 28.90625 -38.84375 C 28.46875 -38.519531 28.25 -38.359375 28.25 -38.359375 C 28.144531 -38.265625 28.039062 -38.238281 27.9375 -38.28125 C 27.84375 -38.332031 27.8125 -38.425781 27.84375 -38.5625 L 31 -49.28125 C 31.675781 -50.0625 32.570312 -50.640625 33.6875 -51.015625 C 34.800781 -51.390625 35.988281 -51.578125 37.25 -51.578125 C 39.71875 -51.578125 41.84375 -51.039062 43.625 -49.96875 C 45.40625 -48.90625 46.757812 -47.484375 47.6875 -45.703125 C 48.613281 -43.921875 49.03125 -41.945312 48.9375 -39.78125 C 48.863281 -38.226562 48.472656 -36.535156 47.765625 -34.703125 C 47.054688 -32.878906 46.15625 -30.96875 45.0625 -28.96875 C 43.976562 -26.96875 42.84375 -24.925781 41.65625 -22.84375 C 40.476562 -20.757812 39.363281 -18.675781 38.3125 -16.59375 C 37.257812 -14.507812 36.398438 -12.484375 35.734375 -10.515625 C 35.078125 -8.554688 34.75 -6.691406 34.75 -4.921875 C 34.75 -3.804688 34.859375 -2.953125 35.078125 -2.359375 C 35.304688 -1.765625 35.5625 -1.332031 35.84375 -1.0625 C 36.132812 -0.789062 36.390625 -0.601562 36.609375 -0.5 C 36.828125 -0.40625 36.9375 -0.304688 36.9375 -0.203125 C 36.9375 -0.0664062 36.769531 0 36.4375 0 L 23.734375 0 C 22.003906 0 20.484375 -0.597656 19.171875 -1.796875 C 17.867188 -3.003906 16.734375 -4.625 15.765625 -6.65625 C 14.804688 -8.6875 13.988281 -10.972656 13.3125 -13.515625 C 12.632812 -16.054688 12.054688 -18.664062 11.578125 -21.34375 C 11.140625 -23.945312 10.664062 -26.523438 10.15625 -29.078125 C 9.65625 -31.640625 9 -34.226562 8.1875 -36.84375 C 7.570312 -38.84375 6.882812 -40.425781 6.125 -41.59375 C 5.363281 -42.757812 4.609375 -43.613281 3.859375 -44.15625 C 3.117188 -44.695312 2.484375 -45.039062 1.953125 -45.1875 C 1.429688 -45.34375 1.085938 -45.421875 0.921875 -45.421875 C 0.648438 -45.421875 0.515625 -45.488281 0.515625 -45.625 Z M 0.515625 -45.625 "/></g></g></g></g></g><g transform="matrix(1, 0, 0, 1, 146, 217)"><g clip-path="url(#6e668fc344)"><g clip-path="url(#6f233ee188)"><g fill="#ffffff" fill-opacity="1"><g transform="translate(0.533095, 12.930223)"><g><path d="M 4.203125 0.125 C 3.648438 0.125 3.113281 0.0546875 2.59375 -0.078125 C 2.082031 -0.210938 1.617188 -0.382812 1.203125 -0.59375 C 0.796875 -0.8125 0.472656 -1.035156 0.234375 -1.265625 L 0.96875 -2.9375 C 1.394531 -2.675781 1.8125 -2.4375 2.21875 -2.21875 C 2.632812 -2.007812 3.070312 -1.84375 3.53125 -1.71875 C 4 -1.601562 4.519531 -1.546875 5.09375 -1.546875 C 5.351562 -1.546875 5.640625 -1.554688 5.953125 -1.578125 C 6.265625 -1.609375 6.578125 -1.660156 6.890625 -1.734375 C 7.210938 -1.804688 7.503906 -1.910156 7.765625 -2.046875 C 8.035156 -2.179688 8.25 -2.351562 8.40625 -2.5625 C 8.5625 -2.78125 8.640625 -3.039062 8.640625 -3.34375 C 8.640625 -3.632812 8.550781 -3.867188 8.375 -4.046875 C 8.207031 -4.234375 7.984375 -4.382812 7.703125 -4.5 C 7.421875 -4.625 7.101562 -4.71875 6.75 -4.78125 C 6.394531 -4.851562 6.023438 -4.914062 5.640625 -4.96875 C 5.265625 -5.019531 4.898438 -5.078125 4.546875 -5.140625 C 3.535156 -5.316406 2.734375 -5.5625 2.140625 -5.875 C 1.546875 -6.1875 1.125 -6.582031 0.875 -7.0625 C 0.625 -7.539062 0.5 -8.109375 0.5 -8.765625 C 0.5 -9.140625 0.570312 -9.523438 0.71875 -9.921875 C 0.875 -10.316406 1.125 -10.6875 1.46875 -11.03125 C 1.820312 -11.375 2.289062 -11.648438 2.875 -11.859375 C 3.46875 -12.078125 4.195312 -12.1875 5.0625 -12.1875 C 5.476562 -12.1875 5.914062 -12.160156 6.375 -12.109375 C 6.84375 -12.054688 7.28125 -11.96875 7.6875 -11.84375 C 8.09375 -11.726562 8.421875 -11.570312 8.671875 -11.375 L 8.171875 -9.546875 C 7.941406 -9.710938 7.625 -9.863281 7.21875 -10 C 6.8125 -10.132812 6.359375 -10.242188 5.859375 -10.328125 C 5.359375 -10.410156 4.847656 -10.453125 4.328125 -10.453125 C 3.890625 -10.453125 3.453125 -10.414062 3.015625 -10.34375 C 2.585938 -10.28125 2.195312 -10.175781 1.84375 -10.03125 C 1.5 -9.882812 1.222656 -9.695312 1.015625 -9.46875 C 0.804688 -9.238281 0.703125 -8.957031 0.703125 -8.625 C 0.703125 -8.351562 0.78125 -8.128906 0.9375 -7.953125 C 1.09375 -7.785156 1.300781 -7.65625 1.5625 -7.5625 C 1.820312 -7.476562 2.109375 -7.414062 2.421875 -7.375 C 2.742188 -7.34375 3.066406 -7.320312 3.390625 -7.3125 C 3.710938 -7.300781 4.007812 -7.289062 4.28125 -7.28125 C 5.1875 -7.207031 5.984375 -7.03125 6.671875 -6.75 C 7.359375 -6.476562 7.894531 -6.085938 8.28125 -5.578125 C 8.664062 -5.066406 8.859375 -4.429688 8.859375 -3.671875 C 8.859375 -3.085938 8.726562 -2.5625 8.46875 -2.09375 C 8.21875 -1.625 7.875 -1.222656 7.4375 -0.890625 C 7 -0.554688 6.5 -0.300781 5.9375 -0.125 C 5.382812 0.0390625 4.804688 0.125 4.203125 0.125 Z M 4.203125 0.125 "/></g></g></g></g><g fill="#ffffff" fill-opacity="1"><g transform="translate(9.634896, 12.930223)"><g><path d="M 0.859375 -6.65625 C 0.859375 -6.988281 0.789062 -7.191406 0.65625 -7.265625 C 0.519531 -7.347656 0.300781 -7.390625 0 -7.390625 L 0 -7.453125 C 0.300781 -7.492188 0.609375 -7.554688 0.921875 -7.640625 C 1.242188 -7.734375 1.550781 -7.835938 1.84375 -7.953125 C 2.144531 -8.078125 2.398438 -8.203125 2.609375 -8.328125 L 2.609375 -5.90625 C 2.648438 -6.144531 2.722656 -6.398438 2.828125 -6.671875 C 2.941406 -6.953125 3.097656 -7.21875 3.296875 -7.46875 C 3.503906 -7.71875 3.753906 -7.921875 4.046875 -8.078125 C 4.335938 -8.242188 4.679688 -8.328125 5.078125 -8.328125 C 5.492188 -8.328125 5.859375 -8.226562 6.171875 -8.03125 C 6.492188 -7.832031 6.757812 -7.5625 6.96875 -7.21875 C 7.1875 -6.882812 7.347656 -6.503906 7.453125 -6.078125 C 7.566406 -5.648438 7.625 -5.203125 7.625 -4.734375 C 7.625 -4.160156 7.550781 -3.59375 7.40625 -3.03125 C 7.257812 -2.476562 7.035156 -1.96875 6.734375 -1.5 C 6.441406 -1.039062 6.070312 -0.675781 5.625 -0.40625 C 5.175781 -0.132812 4.644531 0 4.03125 0 L 2.609375 0 L 2.609375 3.859375 L 0.859375 3.859375 Z M 2.609375 -4.734375 L 2.609375 -0.1875 L 2.96875 -0.1875 C 3.476562 -0.1875 3.90625 -0.273438 4.25 -0.453125 C 4.601562 -0.640625 4.882812 -0.890625 5.09375 -1.203125 C 5.3125 -1.515625 5.476562 -1.863281 5.59375 -2.25 C 5.707031 -2.632812 5.785156 -3.035156 5.828125 -3.453125 C 5.867188 -3.878906 5.890625 -4.285156 5.890625 -4.671875 C 5.890625 -5.109375 5.84375 -5.53125 5.75 -5.9375 C 5.65625 -6.34375 5.488281 -6.675781 5.25 -6.9375 C 5.019531 -7.195312 4.691406 -7.328125 4.265625 -7.328125 C 3.972656 -7.328125 3.703125 -7.226562 3.453125 -7.03125 C 3.203125 -6.832031 3 -6.539062 2.84375 -6.15625 C 2.6875 -5.769531 2.609375 -5.296875 2.609375 -4.734375 Z M 2.609375 -4.734375 "/></g></g></g><g fill="#ffffff" fill-opacity="1"><g transform="translate(17.856659, 12.930223)"><g><path d="M 0.359375 -1.609375 C 0.359375 -1.992188 0.445312 -2.351562 0.625 -2.6875 C 0.800781 -3.03125 1.039062 -3.351562 1.34375 -3.65625 C 1.644531 -3.96875 1.984375 -4.253906 2.359375 -4.515625 C 2.742188 -4.773438 3.128906 -5.015625 3.515625 -5.234375 C 3.128906 -5.398438 2.734375 -5.535156 2.328125 -5.640625 C 1.929688 -5.742188 1.566406 -5.820312 1.234375 -5.875 C 0.898438 -5.9375 0.628906 -5.972656 0.421875 -5.984375 C 0.546875 -6.492188 0.78125 -6.921875 1.125 -7.265625 C 1.46875 -7.609375 1.867188 -7.867188 2.328125 -8.046875 C 2.785156 -8.234375 3.242188 -8.328125 3.703125 -8.328125 C 4.304688 -8.328125 4.78125 -8.238281 5.125 -8.0625 C 5.476562 -7.882812 5.75 -7.640625 5.9375 -7.328125 C 6.132812 -7.015625 6.285156 -6.660156 6.390625 -6.265625 C 6.492188 -5.878906 6.597656 -5.472656 6.703125 -5.046875 C 6.847656 -4.472656 6.976562 -3.925781 7.09375 -3.40625 C 7.21875 -2.894531 7.34375 -2.367188 7.46875 -1.828125 C 7.601562 -1.285156 7.75 -0.675781 7.90625 0 L 6.140625 0 L 6.140625 -2.5625 C 6.140625 -2.28125 6.0625 -1.984375 5.90625 -1.671875 C 5.757812 -1.367188 5.539062 -1.078125 5.25 -0.796875 C 4.96875 -0.523438 4.609375 -0.300781 4.171875 -0.125 C 3.742188 0.0390625 3.253906 0.125 2.703125 0.125 C 2.328125 0.125 1.957031 0.0546875 1.59375 -0.078125 C 1.238281 -0.210938 0.941406 -0.410156 0.703125 -0.671875 C 0.472656 -0.929688 0.359375 -1.242188 0.359375 -1.609375 Z M 5.953125 -2.5625 C 5.953125 -2.9375 5.863281 -3.273438 5.6875 -3.578125 C 5.519531 -3.878906 5.289062 -4.148438 5 -4.390625 C 4.707031 -4.628906 4.378906 -4.835938 4.015625 -5.015625 C 3.660156 -4.753906 3.332031 -4.457031 3.03125 -4.125 C 2.738281 -3.789062 2.503906 -3.4375 2.328125 -3.0625 C 2.148438 -2.695312 2.0625 -2.300781 2.0625 -1.875 C 2.0625 -1.582031 2.140625 -1.320312 2.296875 -1.09375 C 2.453125 -0.875 2.664062 -0.695312 2.9375 -0.5625 C 3.207031 -0.425781 3.503906 -0.359375 3.828125 -0.359375 C 4.117188 -0.359375 4.394531 -0.429688 4.65625 -0.578125 C 4.914062 -0.734375 5.144531 -0.925781 5.34375 -1.15625 C 5.539062 -1.394531 5.691406 -1.640625 5.796875 -1.890625 C 5.898438 -2.140625 5.953125 -2.363281 5.953125 -2.5625 Z M 3.78125 -5.375 C 4.238281 -5.613281 4.675781 -5.8125 5.09375 -5.96875 C 5.507812 -6.132812 5.851562 -6.253906 6.125 -6.328125 C 6.09375 -6.828125 5.921875 -7.195312 5.609375 -7.4375 C 5.304688 -7.675781 4.957031 -7.796875 4.5625 -7.796875 C 4.1875 -7.796875 3.851562 -7.734375 3.5625 -7.609375 C 3.269531 -7.492188 3.023438 -7.347656 2.828125 -7.171875 C 2.628906 -7.003906 2.476562 -6.832031 2.375 -6.65625 C 2.28125 -6.476562 2.234375 -6.332031 2.234375 -6.21875 C 2.234375 -6.15625 2.242188 -6.082031 2.265625 -6 C 2.296875 -5.925781 2.363281 -5.875 2.46875 -5.84375 C 2.9375 -5.707031 3.375 -5.550781 3.78125 -5.375 Z M 6.140625 -6.125 C 5.847656 -6.039062 5.535156 -5.914062 5.203125 -5.75 C 4.867188 -5.582031 4.539062 -5.382812 4.21875 -5.15625 C 4.789062 -4.863281 5.253906 -4.503906 5.609375 -4.078125 C 5.960938 -3.660156 6.140625 -3.15625 6.140625 -2.5625 Z M 6.140625 -6.125 "/></g></g></g><g fill="#ffffff" fill-opacity="1"><g transform="translate(26.006091, 12.930223)"><g><path d="M 1 -8.015625 L 0 -8.015625 L 2.78125 -10.8125 C 2.78125 -10.320312 2.773438 -9.863281 2.765625 -9.4375 C 2.765625 -9.019531 2.765625 -8.609375 2.765625 -8.203125 L 4.015625 -8.203125 L 4.015625 -8.015625 L 2.765625 -8.015625 C 2.765625 -7.359375 2.757812 -6.71875 2.75 -6.09375 C 2.75 -5.46875 2.75 -4.816406 2.75 -4.140625 C 2.75 -3.460938 2.75 -2.722656 2.75 -1.921875 C 2.75 -1.722656 2.769531 -1.535156 2.8125 -1.359375 C 2.863281 -1.191406 2.945312 -1.050781 3.0625 -0.9375 C 3.1875 -0.832031 3.367188 -0.78125 3.609375 -0.78125 C 3.722656 -0.78125 3.828125 -0.785156 3.921875 -0.796875 C 4.023438 -0.816406 4.117188 -0.84375 4.203125 -0.875 L 4.234375 -0.8125 C 4.054688 -0.707031 3.847656 -0.582031 3.609375 -0.4375 C 3.367188 -0.289062 3.140625 -0.160156 2.921875 -0.046875 C 2.710938 0.0664062 2.546875 0.125 2.421875 0.125 C 2.109375 0.125 1.84375 0.0507812 1.625 -0.09375 C 1.414062 -0.238281 1.257812 -0.421875 1.15625 -0.640625 C 1.050781 -0.867188 1 -1.101562 1 -1.34375 Z M 1 -8.015625 "/></g></g></g><g fill="#ffffff" fill-opacity="1"><g transform="translate(30.237527, 12.930223)"><g><path d="M 0 -7.453125 C 0.300781 -7.492188 0.609375 -7.554688 0.921875 -7.640625 C 1.242188 -7.734375 1.550781 -7.835938 1.84375 -7.953125 C 2.144531 -8.078125 2.398438 -8.203125 2.609375 -8.328125 L 2.609375 0 L 0.859375 0 L 0.859375 -6.609375 C 0.859375 -6.941406 0.789062 -7.15625 0.65625 -7.25 C 0.519531 -7.34375 0.300781 -7.390625 0 -7.390625 Z M 0.640625 -9.765625 C 0.640625 -10.035156 0.738281 -10.265625 0.9375 -10.453125 C 1.132812 -10.648438 1.367188 -10.75 1.640625 -10.75 C 1.921875 -10.75 2.15625 -10.648438 2.34375 -10.453125 C 2.539062 -10.265625 2.640625 -10.035156 2.640625 -9.765625 C 2.640625 -9.484375 2.539062 -9.242188 2.34375 -9.046875 C 2.15625 -8.847656 1.921875 -8.75 1.640625 -8.75 C 1.367188 -8.75 1.132812 -8.847656 0.9375 -9.046875 C 0.738281 -9.242188 0.640625 -9.484375 0.640625 -9.765625 Z M 0.640625 -9.765625 "/></g></g></g><g fill="#ffffff" fill-opacity="1"><g transform="translate(33.600977, 12.930223)"><g><path d="M 0.359375 -1.609375 C 0.359375 -1.992188 0.445312 -2.351562 0.625 -2.6875 C 0.800781 -3.03125 1.039062 -3.351562 1.34375 -3.65625 C 1.644531 -3.96875 1.984375 -4.253906 2.359375 -4.515625 C 2.742188 -4.773438 3.128906 -5.015625 3.515625 -5.234375 C 3.128906 -5.398438 2.734375 -5.535156 2.328125 -5.640625 C 1.929688 -5.742188 1.566406 -5.820312 1.234375 -5.875 C 0.898438 -5.9375 0.628906 -5.972656 0.421875 -5.984375 C 0.546875 -6.492188 0.78125 -6.921875 1.125 -7.265625 C 1.46875 -7.609375 1.867188 -7.867188 2.328125 -8.046875 C 2.785156 -8.234375 3.242188 -8.328125 3.703125 -8.328125 C 4.304688 -8.328125 4.78125 -8.238281 5.125 -8.0625 C 5.476562 -7.882812 5.75 -7.640625 5.9375 -7.328125 C 6.132812 -7.015625 6.285156 -6.660156 6.390625 -6.265625 C 6.492188 -5.878906 6.597656 -5.472656 6.703125 -5.046875 C 6.847656 -4.472656 6.976562 -3.925781 7.09375 -3.40625 C 7.21875 -2.894531 7.34375 -2.367188 7.46875 -1.828125 C 7.601562 -1.285156 7.75 -0.675781 7.90625 0 L 6.140625 0 L 6.140625 -2.5625 C 6.140625 -2.28125 6.0625 -1.984375 5.90625 -1.671875 C 5.757812 -1.367188 5.539062 -1.078125 5.25 -0.796875 C 4.96875 -0.523438 4.609375 -0.300781 4.171875 -0.125 C 3.742188 0.0390625 3.253906 0.125 2.703125 0.125 C 2.328125 0.125 1.957031 0.0546875 1.59375 -0.078125 C 1.238281 -0.210938 0.941406 -0.410156 0.703125 -0.671875 C 0.472656 -0.929688 0.359375 -1.242188 0.359375 -1.609375 Z M 5.953125 -2.5625 C 5.953125 -2.9375 5.863281 -3.273438 5.6875 -3.578125 C 5.519531 -3.878906 5.289062 -4.148438 5 -4.390625 C 4.707031 -4.628906 4.378906 -4.835938 4.015625 -5.015625 C 3.660156 -4.753906 3.332031 -4.457031 3.03125 -4.125 C 2.738281 -3.789062 2.503906 -3.4375 2.328125 -3.0625 C 2.148438 -2.695312 2.0625 -2.300781 2.0625 -1.875 C 2.0625 -1.582031 2.140625 -1.320312 2.296875 -1.09375 C 2.453125 -0.875 2.664062 -0.695312 2.9375 -0.5625 C 3.207031 -0.425781 3.503906 -0.359375 3.828125 -0.359375 C 4.117188 -0.359375 4.394531 -0.429688 4.65625 -0.578125 C 4.914062 -0.734375 5.144531 -0.925781 5.34375 -1.15625 C 5.539062 -1.394531 5.691406 -1.640625 5.796875 -1.890625 C 5.898438 -2.140625 5.953125 -2.363281 5.953125 -2.5625 Z M 3.78125 -5.375 C 4.238281 -5.613281 4.675781 -5.8125 5.09375 -5.96875 C 5.507812 -6.132812 5.851562 -6.253906 6.125 -6.328125 C 6.09375 -6.828125 5.921875 -7.195312 5.609375 -7.4375 C 5.304688 -7.675781 4.957031 -7.796875 4.5625 -7.796875 C 4.1875 -7.796875 3.851562 -7.734375 3.5625 -7.609375 C 3.269531 -7.492188 3.023438 -7.347656 2.828125 -7.171875 C 2.628906 -7.003906 2.476562 -6.832031 2.375 -6.65625 C 2.28125 -6.476562 2.234375 -6.332031 2.234375 -6.21875 C 2.234375 -6.15625 2.242188 -6.082031 2.265625 -6 C 2.296875 -5.925781 2.363281 -5.875 2.46875 -5.84375 C 2.9375 -5.707031 3.375 -5.550781 3.78125 -5.375 Z M 6.140625 -6.125 C 5.847656 -6.039062 5.535156 -5.914062 5.203125 -5.75 C 4.867188 -5.582031 4.539062 -5.382812 4.21875 -5.15625 C 4.789062 -4.863281 5.253906 -4.503906 5.609375 -4.078125 C 5.960938 -3.660156 6.140625 -3.15625 6.140625 -2.5625 Z M 6.140625 -6.125 "/></g></g></g><g clip-path="url(#5371b232e1)"><g fill="#ffffff" fill-opacity="1"><g transform="translate(41.750409, 12.930223)"><g><path d="M 0 -11.3125 C 0.300781 -11.351562 0.609375 -11.414062 0.921875 -11.5 C 1.242188 -11.59375 1.550781 -11.695312 1.84375 -11.8125 C 2.144531 -11.9375 2.398438 -12.0625 2.609375 -12.1875 L 2.609375 0 L 0.859375 0 L 0.859375 -10.515625 C 0.859375 -10.847656 0.789062 -11.050781 0.65625 -11.125 C 0.519531 -11.207031 0.300781 -11.25 0 -11.25 Z M 0 -11.3125 "/></g></g></g></g><g clip-path="url(#38a1549b46)"><g fill="#ffffff" fill-opacity="1"><g transform="translate(45.077693, 12.930223)"><g><path d="M 0.234375 -12.0625 L 2.875 -12.0625 C 2.832031 -11.882812 2.796875 -11.59375 2.765625 -11.1875 C 2.742188 -10.789062 2.726562 -10.3125 2.71875 -9.75 C 2.71875 -9.195312 2.726562 -8.601562 2.75 -7.96875 C 2.769531 -7.332031 2.804688 -6.6875 2.859375 -6.03125 C 2.910156 -5.375 2.976562 -4.75 3.0625 -4.15625 C 3.144531 -3.5625 3.242188 -3.03125 3.359375 -2.5625 C 3.472656 -2.101562 3.609375 -1.734375 3.765625 -1.453125 C 3.921875 -1.179688 4.101562 -1.046875 4.3125 -1.046875 C 4.445312 -1.046875 4.550781 -1.078125 4.625 -1.140625 C 4.707031 -1.210938 4.78125 -1.332031 4.84375 -1.5 C 5.09375 -2.300781 5.320312 -3.046875 5.53125 -3.734375 C 5.75 -4.429688 5.957031 -5.101562 6.15625 -5.75 C 6.351562 -6.40625 6.546875 -7.0625 6.734375 -7.71875 C 6.929688 -8.375 7.132812 -9.054688 7.34375 -9.765625 C 7.5625 -10.472656 7.796875 -11.238281 8.046875 -12.0625 L 9.890625 -12.0625 C 9.640625 -11.238281 9.40625 -10.472656 9.1875 -9.765625 C 8.976562 -9.054688 8.773438 -8.375 8.578125 -7.71875 C 8.378906 -7.070312 8.179688 -6.421875 7.984375 -5.765625 C 7.785156 -5.109375 7.578125 -4.429688 7.359375 -3.734375 C 7.148438 -3.046875 6.925781 -2.300781 6.6875 -1.5 C 6.601562 -1.21875 6.488281 -0.953125 6.34375 -0.703125 C 6.207031 -0.460938 6.035156 -0.265625 5.828125 -0.109375 C 5.617188 0.046875 5.363281 0.125 5.0625 0.125 C 4.769531 0.125 4.519531 0.046875 4.3125 -0.109375 C 4.101562 -0.265625 3.925781 -0.460938 3.78125 -0.703125 C 3.644531 -0.953125 3.535156 -1.21875 3.453125 -1.5 C 3.203125 -2.300781 2.972656 -3.046875 2.765625 -3.734375 C 2.554688 -4.429688 2.351562 -5.109375 2.15625 -5.765625 C 1.957031 -6.421875 1.757812 -7.070312 1.5625 -7.71875 C 1.363281 -8.375 1.15625 -9.054688 0.9375 -9.765625 C 0.71875 -10.472656 0.484375 -11.238281 0.234375 -12.0625 Z M 0.234375 -12.0625 "/></g></g></g></g><g fill="#ffffff" fill-opacity="1"><g transform="translate(55.204202, 12.930223)"><g><path d="M 4 0.125 C 3.375 0.125 2.800781 -0.0234375 2.28125 -0.328125 C 1.769531 -0.640625 1.363281 -1.109375 1.0625 -1.734375 C 0.757812 -2.359375 0.609375 -3.144531 0.609375 -4.09375 C 0.609375 -5.050781 0.753906 -5.84375 1.046875 -6.46875 C 1.347656 -7.09375 1.753906 -7.554688 2.265625 -7.859375 C 2.773438 -8.171875 3.351562 -8.328125 4 -8.328125 C 4.632812 -8.328125 5.207031 -8.171875 5.71875 -7.859375 C 6.226562 -7.554688 6.640625 -7.09375 6.953125 -6.46875 C 7.265625 -5.84375 7.421875 -5.050781 7.421875 -4.09375 C 7.421875 -3.144531 7.265625 -2.359375 6.953125 -1.734375 C 6.648438 -1.109375 6.238281 -0.640625 5.71875 -0.328125 C 5.207031 -0.0234375 4.632812 0.125 4 0.125 Z M 3.09375 -8.015625 C 2.769531 -7.941406 2.515625 -7.691406 2.328125 -7.265625 C 2.148438 -6.847656 2.050781 -6.320312 2.03125 -5.6875 C 2.007812 -5.0625 2.082031 -4.390625 2.25 -3.671875 C 2.425781 -2.953125 2.660156 -2.3125 2.953125 -1.75 C 3.253906 -1.195312 3.582031 -0.78125 3.9375 -0.5 C 4.289062 -0.21875 4.628906 -0.113281 4.953125 -0.1875 C 5.273438 -0.269531 5.523438 -0.519531 5.703125 -0.9375 C 5.890625 -1.351562 5.992188 -1.878906 6.015625 -2.515625 C 6.035156 -3.148438 5.960938 -3.820312 5.796875 -4.53125 C 5.660156 -5.070312 5.492188 -5.566406 5.296875 -6.015625 C 5.097656 -6.460938 4.875 -6.847656 4.625 -7.171875 C 4.375 -7.492188 4.113281 -7.734375 3.84375 -7.890625 C 3.582031 -8.046875 3.332031 -8.085938 3.09375 -8.015625 Z M 3.09375 -8.015625 "/></g></g></g><g fill="#ffffff" fill-opacity="1"><g transform="translate(63.221019, 12.930223)"><g><path d="M 0 -7.453125 C 0.300781 -7.492188 0.609375 -7.554688 0.921875 -7.640625 C 1.242188 -7.734375 1.550781 -7.835938 1.84375 -7.953125 C 2.144531 -8.078125 2.398438 -8.203125 2.609375 -8.328125 L 2.609375 0 L 0.859375 0 L 0.859375 -6.609375 C 0.859375 -6.941406 0.789062 -7.15625 0.65625 -7.25 C 0.519531 -7.34375 0.300781 -7.390625 0 -7.390625 Z M 0.640625 -9.765625 C 0.640625 -10.035156 0.738281 -10.265625 0.9375 -10.453125 C 1.132812 -10.648438 1.367188 -10.75 1.640625 -10.75 C 1.921875 -10.75 2.15625 -10.648438 2.34375 -10.453125 C 2.539062 -10.265625 2.640625 -10.035156 2.640625 -9.765625 C 2.640625 -9.484375 2.539062 -9.242188 2.34375 -9.046875 C 2.15625 -8.847656 1.921875 -8.75 1.640625 -8.75 C 1.367188 -8.75 1.132812 -8.847656 0.9375 -9.046875 C 0.738281 -9.242188 0.640625 -9.484375 0.640625 -9.765625 Z M 0.640625 -9.765625 "/></g></g></g><g fill="#ffffff" fill-opacity="1"><g transform="translate(66.584469, 12.930223)"><g><path d="M 4.6875 0.125 C 4.125 0.125 3.597656 0.0195312 3.109375 -0.1875 C 2.617188 -0.394531 2.1875 -0.679688 1.8125 -1.046875 C 1.4375 -1.410156 1.140625 -1.835938 0.921875 -2.328125 C 0.710938 -2.816406 0.609375 -3.347656 0.609375 -3.921875 C 0.609375 -4.472656 0.691406 -5.003906 0.859375 -5.515625 C 1.023438 -6.023438 1.265625 -6.476562 1.578125 -6.875 C 1.898438 -7.28125 2.289062 -7.601562 2.75 -7.84375 C 3.207031 -8.082031 3.726562 -8.203125 4.3125 -8.203125 C 5.125 -8.203125 5.820312 -8.023438 6.40625 -7.671875 C 6.988281 -7.316406 7.457031 -6.742188 7.8125 -5.953125 L 6.328125 -5.171875 C 6.148438 -5.617188 5.9375 -6.046875 5.6875 -6.453125 C 5.445312 -6.867188 5.15625 -7.207031 4.8125 -7.46875 C 4.46875 -7.726562 4.050781 -7.859375 3.5625 -7.859375 C 3.144531 -7.859375 2.800781 -7.742188 2.53125 -7.515625 C 2.269531 -7.285156 2.066406 -6.988281 1.921875 -6.625 C 1.785156 -6.269531 1.71875 -5.898438 1.71875 -5.515625 C 1.71875 -4.773438 1.859375 -4.097656 2.140625 -3.484375 C 2.429688 -2.867188 2.835938 -2.375 3.359375 -2 C 3.890625 -1.632812 4.523438 -1.453125 5.265625 -1.453125 C 5.710938 -1.453125 6.140625 -1.539062 6.546875 -1.71875 C 6.960938 -1.90625 7.289062 -2.148438 7.53125 -2.453125 L 7.59375 -2.453125 L 6.90625 -0.3125 C 6.582031 -0.15625 6.226562 -0.046875 5.84375 0.015625 C 5.457031 0.0859375 5.070312 0.125 4.6875 0.125 Z M 4.6875 0.125 "/></g></g></g><g fill="#ffffff" fill-opacity="1"><g transform="translate(74.637458, 12.930223)"><g><path d="M 4.6875 0.125 C 4.125 0.125 3.597656 0.0195312 3.109375 -0.1875 C 2.617188 -0.394531 2.1875 -0.679688 1.8125 -1.046875 C 1.4375 -1.421875 1.140625 -1.859375 0.921875 -2.359375 C 0.710938 -2.859375 0.609375 -3.398438 0.609375 -3.984375 C 0.609375 -4.546875 0.679688 -5.082031 0.828125 -5.59375 C 0.972656 -6.113281 1.203125 -6.578125 1.515625 -6.984375 C 1.828125 -7.398438 2.234375 -7.726562 2.734375 -7.96875 C 3.234375 -8.207031 3.832031 -8.328125 4.53125 -8.328125 C 5.125 -8.328125 5.640625 -8.222656 6.078125 -8.015625 C 6.523438 -7.804688 6.867188 -7.539062 7.109375 -7.21875 C 7.359375 -6.894531 7.484375 -6.546875 7.484375 -6.171875 C 7.484375 -5.816406 7.390625 -5.523438 7.203125 -5.296875 C 7.015625 -5.078125 6.765625 -4.890625 6.453125 -4.734375 C 6.148438 -4.578125 5.832031 -4.421875 5.5 -4.265625 C 5.113281 -4.078125 4.726562 -3.882812 4.34375 -3.6875 C 3.96875 -3.5 3.628906 -3.320312 3.328125 -3.15625 C 3.023438 -3 2.785156 -2.875 2.609375 -2.78125 C 2.910156 -2.382812 3.285156 -2.066406 3.734375 -1.828125 C 4.191406 -1.597656 4.703125 -1.484375 5.265625 -1.484375 C 5.710938 -1.484375 6.140625 -1.570312 6.546875 -1.75 C 6.960938 -1.9375 7.289062 -2.179688 7.53125 -2.484375 L 7.59375 -2.484375 L 6.90625 -0.328125 C 6.582031 -0.160156 6.226562 -0.046875 5.84375 0.015625 C 5.457031 0.0859375 5.070312 0.125 4.6875 0.125 Z M 3.640625 -7.96875 C 3.203125 -7.96875 2.835938 -7.851562 2.546875 -7.625 C 2.265625 -7.394531 2.054688 -7.097656 1.921875 -6.734375 C 1.785156 -6.367188 1.71875 -5.988281 1.71875 -5.59375 C 1.71875 -4.550781 1.984375 -3.65625 2.515625 -2.90625 C 2.648438 -2.988281 2.847656 -3.109375 3.109375 -3.265625 C 3.378906 -3.429688 3.660156 -3.625 3.953125 -3.84375 C 4.253906 -4.070312 4.539062 -4.3125 4.8125 -4.5625 C 5.082031 -4.820312 5.300781 -5.085938 5.46875 -5.359375 C 5.644531 -5.640625 5.734375 -5.910156 5.734375 -6.171875 C 5.734375 -6.335938 5.703125 -6.519531 5.640625 -6.71875 C 5.585938 -6.925781 5.484375 -7.125 5.328125 -7.3125 C 5.179688 -7.5 4.96875 -7.65625 4.6875 -7.78125 C 4.414062 -7.90625 4.066406 -7.96875 3.640625 -7.96875 Z M 3.640625 -7.96875 "/></g></g></g></g></g><g clip-path="url(#abc60dae0e)"><path fill="#ffffff" d="M 208.363281 239.121094 C 208.691406 238.433594 209.667969 238.433594 209.996094 239.121094 L 211.59375 242.472656 C 211.726562 242.75 211.988281 242.941406 212.292969 242.980469 L 215.972656 243.464844 C 216.726562 243.5625 217.03125 244.492188 216.476562 245.015625 L 213.785156 247.574219 C 213.5625 247.785156 213.460938 248.09375 213.519531 248.394531 L 214.195312 252.046875 C 214.332031 252.792969 213.542969 253.367188 212.875 253.007812 L 209.609375 251.234375 C 209.339844 251.089844 209.015625 251.089844 208.746094 251.234375 L 205.484375 253.007812 C 204.816406 253.367188 204.023438 252.792969 204.164062 252.046875 L 204.839844 248.394531 C 204.894531 248.09375 204.792969 247.785156 204.570312 247.574219 L 201.878906 245.015625 C 201.328125 244.492188 201.628906 243.5625 202.382812 243.464844 L 206.066406 242.980469 C 206.367188 242.941406 206.632812 242.75 206.761719 242.472656 Z M 208.363281 239.121094 " fill-opacity="1" fill-rule="nonzero"/></g></svg>